<svg xmlns="http://www.w3.org/2000/svg" width="89" height="134.01" viewBox="0 0 89 134.01">
  <g id="Group_20985" data-name="Group 20985" transform="translate(-595.502 -104.998)">
    <path id="Union_10" data-name="Union 10" d="M19631.777,23639.969a1.683,1.683,0,0,1-1.641-1.3l-1.512-6.635a29.863,29.863,0,0,0,20.74.006l-1.514,6.629a1.676,1.676,0,0,1-1.631,1.3Zm-3.994-11.609-.578-2.551a1.675,1.675,0,0,1,.32-1.422,1.7,1.7,0,0,1,1.309-.623h20.33a1.66,1.66,0,0,1,1.594,2.182l-.553,2.414a26.709,26.709,0,0,1-22.422,0Zm36.82.637-6.518-2a29.957,29.957,0,0,0,10.387-17.965l4.988,4.631a1.672,1.672,0,0,1,.309,2.068l-7.217,12.5a1.679,1.679,0,0,1-1.949.768Zm-53.158-.768-7.215-12.5a1.664,1.664,0,0,1,.3-2.062l4.992-4.637a29.94,29.94,0,0,0,10.387,17.965l-6.521,2a1.674,1.674,0,0,1-1.945-.768Zm40.555-3.115a1.681,1.681,0,0,1-.957-2.441l10.158-17.6.008-.006a1.679,1.679,0,0,1,2.289-.613,2,2,0,0,1,.4.32l1.826,1.7a26.863,26.863,0,0,1-11.229,19.41Zm-39.721-18.643,1.824-1.7a1.7,1.7,0,0,1,.4-.32,1.676,1.676,0,0,1,2.287.613v.006l10.168,17.6a1.683,1.683,0,0,1-.959,2.441l-2.5.768A26.833,26.833,0,0,1,19612.279,23606.471Zm50.131-2.752a1.66,1.66,0,0,1-1.2-.82l-10.16-17.6-.006-.006a1.673,1.673,0,0,1,.613-2.289,1.634,1.634,0,0,1,.475-.184l2.367-.732a26.857,26.857,0,0,1,11.223,19.41l-1.926,1.789a1.686,1.686,0,0,1-1.137.445A1.745,1.745,0,0,1,19662.41,23603.719Zm-48.211-.428-1.92-1.789a26.838,26.838,0,0,1,11.217-19.41l2.367.732a1.606,1.606,0,0,1,.48.184,1.68,1.68,0,0,1,.613,2.289v.006l-10.168,17.6a1.664,1.664,0,0,1-1.2.82,1.734,1.734,0,0,1-1.391-.428Zm43.893-22.3,6.518-2.01a1.668,1.668,0,0,1,1.943.768l7.217,12.508a1.658,1.658,0,0,1-.309,2.063l-4.988,4.631A29.918,29.918,0,0,0,19658.092,23580.986Zm-53.559,13.328a1.675,1.675,0,0,1-.309-2.068l7.221-12.5a1.662,1.662,0,0,1,1.939-.768l6.521,2.01a29.926,29.926,0,0,0-10.387,17.959Zm24.3-10.105a1.665,1.665,0,0,1-1.635-2.047l.59-2.555a26.74,26.74,0,0,1,22.41,0l.559,2.418a1.857,1.857,0,0,1,.078.514,1.673,1.673,0,0,1-1.678,1.67Zm10.166-10.131a29.829,29.829,0,0,0-10.375,1.855l1.512-6.629a1.684,1.684,0,0,1,1.641-1.307h14.443a1.678,1.678,0,0,1,1.631,1.307l1.514,6.629A29.84,29.84,0,0,0,19639,23574.078Z" transform="translate(-18998.93 -23462.5)" fill="#518ced" stroke="rgba(0,0,0,0)" stroke-miterlimit="10" stroke-width="1"/>
    <path id="Union_11" data-name="Union 11" d="M19687.732,23596.277v-19.928l-9.34,17.459-9.338-17.459v19.928h-4.27v-28.26h4.27l9.338,17.459,9.34-17.459h4.27v28.26Zm-45.895,0-11.619-28.277h4.73l9.475,23.131,9.471-23.131h4.771l-11.623,28.277Zm-37.836,0V23568h20.809v3.8h-16.746v8.16h15.166v3.8h-15.166v8.717h16.746v3.8Z" transform="translate(-19008 -23357.77)" fill="#518ced" stroke="rgba(0,0,0,0)" stroke-miterlimit="10" stroke-width="1"/>
  </g>
</svg>
