<svg xmlns="http://www.w3.org/2000/svg" xmlns:xlink="http://www.w3.org/1999/xlink" width="32" height="32" viewBox="0 0 32 32">
  <defs>
    <linearGradient id="linear-gradient" x1="-6.559" y1="-1.475" x2="-6.558" y2="-1.475" gradientUnits="objectBoundingBox">
      <stop offset="0" stop-color="#96e1aa"/>
      <stop offset="1" stop-color="#0095d9"/>
    </linearGradient>
  </defs>
  <g id="Group_15170" data-name="Group 15170" transform="translate(6944.905 24049.047)">
    <circle id="Ellipse_127" data-name="Ellipse 127" cx="16" cy="16" r="16" transform="translate(-6944.905 -24049.047)" fill="url(#linear-gradient)"/>
    <path id="Subtraction_1" data-name="Subtraction 1" d="M10.734,10.818A14.7,14.7,0,0,1,.268,6.484C.179,6.394.089,6.3,0,6.208A7.459,7.459,0,0,1,7.349,0h6.773a7.46,7.46,0,0,1,7.349,6.2c-.1.1-.187.194-.273.28A14.7,14.7,0,0,1,10.734,10.818Z" transform="translate(-6939.639 -24029.066)" fill="#fff"/>
    <ellipse id="Ellipse_128" data-name="Ellipse 128" cx="6.736" cy="6.736" rx="6.736" ry="6.736" transform="translate(-6935.637 -24043.508)" fill="#fff"/>
  </g>
</svg>
