<svg xmlns="http://www.w3.org/2000/svg" width="24.278" height="30.92" viewBox="0 0 24.278 30.92">
  <g id="Group_21401" data-name="Group 21401" transform="translate(-8.862 -33.081)">
    <path id="Path_46" data-name="Path 46" d="M166.9,630.889a4.782,4.782,0,0,1-4.738-4.817v-7.611a5.825,5.825,0,0,0-2.6-4.874l-2.243-1.485a5.737,5.737,0,0,1-2.559-4.8v-2.957a1.009,1.009,0,0,1,1-1.017h22.277a1.009,1.009,0,0,1,1,1.017V607.3a5.735,5.735,0,0,1-2.558,4.8l-2.245,1.485a5.822,5.822,0,0,0-2.6,4.874v7.611a4.782,4.782,0,0,1-4.738,4.817m-10.138-25.525v1.94a3.7,3.7,0,0,0,1.65,3.094l2.242,1.484a7.858,7.858,0,0,1,3.51,6.579v7.611a2.736,2.736,0,1,0,5.472,0v-7.611a7.861,7.861,0,0,1,3.508-6.579l2.245-1.484a3.7,3.7,0,0,0,1.648-3.094v-1.94Z" transform="translate(-145.9 -570.248)" fill="#ffffff"/>
    <path id="Path_47" data-name="Path 47" d="M319.84,1064.5h-4.929a1.039,1.039,0,0,1-1.04-1.04v-3.36a1.04,1.04,0,0,1,2.08,0v2.32H318.8v-2.32a1.04,1.04,0,0,1,2.08,0v3.36a1.039,1.039,0,0,1-1.04,1.04" transform="translate(-296.375 -1000.504)" fill="#ffffff"/>
  </g>
</svg>
