<svg width="35" height="35" viewBox="0 0 35 35" fill="none" xmlns="http://www.w3.org/2000/svg">
<path d="M4.66666 28V25.6667H7.93332V13.7667C7.93332 11.5889 8.55555 9.64445 9.87777 7.93333C11.2 6.22222 12.8333 5.13334 14.9333 4.74445V3.65556C14.9333 3.03334 15.1667 2.56667 15.5555 2.17778C15.9444 1.78889 16.4889 1.55556 17.1111 1.55556C17.7333 1.55556 18.2 1.78889 18.6667 2.17778C19.1333 2.56667 19.2889 3.03334 19.2889 3.65556V4.82222C21.3889 5.28889 23.1 6.3 24.4222 8.01111C25.7444 9.72222 26.3667 11.6667 26.3667 13.8444V25.6667H29.5555V28H4.66666ZM17.1111 32.6667C16.2555 32.6667 15.5555 32.3556 14.9333 31.7333C14.3111 31.1111 14 30.4111 14 29.5556H20.2222C20.2222 30.4111 19.9111 31.1111 19.2889 31.7333C18.6667 32.3556 17.9667 32.6667 17.1111 32.6667Z" fill="white"/>
</svg>
