<svg xmlns="http://www.w3.org/2000/svg" width="22" height="21.02" viewBox="0 0 22 21.02">
  <path id="Path_13044" data-name="Path 13044" d="M383.588,489.1h-4.3V487.96a1.269,1.269,0,1,0-2.538,0V489.1h-7.167V487.96a1.269,1.269,0,1,0-2.538,0V489.1H363.28a.846.846,0,0,0-.846.846v16.923a.846.846,0,0,0,.846.846h20.308a.845.845,0,0,0,.846-.846V489.942A.845.845,0,0,0,383.588,489.1Zm-19.462,16.923V494.683h18.615v11.336Zm5.712-8.673v1.269a.845.845,0,0,1-.846.846h-1.269a.846.846,0,0,1-.846-.846v-1.269a.846.846,0,0,1,.846-.846h1.269A.845.845,0,0,1,369.838,497.346Zm5.077,0v1.269a.845.845,0,0,1-.846.846H372.8a.846.846,0,0,1-.846-.846v-1.269a.846.846,0,0,1,.846-.846h1.269A.845.845,0,0,1,374.915,497.346Zm5.077,0v1.269a.845.845,0,0,1-.846.846h-1.269a.846.846,0,0,1-.846-.846v-1.269a.846.846,0,0,1,.846-.846h1.269A.845.845,0,0,1,379.992,497.346Zm-10.154,4.779v1.269a.845.845,0,0,1-.846.846h-1.269a.846.846,0,0,1-.846-.846v-1.269a.846.846,0,0,1,.846-.846h1.269A.846.846,0,0,1,369.838,502.125Zm5.077,0v1.269a.845.845,0,0,1-.846.846H372.8a.846.846,0,0,1-.846-.846v-1.269a.846.846,0,0,1,.846-.846h1.269A.846.846,0,0,1,374.915,502.125Zm5.077,0v1.269a.845.845,0,0,1-.846.846h-1.269a.846.846,0,0,1-.846-.846v-1.269a.846.846,0,0,1,.846-.846h1.269A.846.846,0,0,1,379.992,502.125Z" transform="translate(-362.434 -486.691)" fill="#518ced"/>
</svg>
