<svg xmlns="http://www.w3.org/2000/svg" xmlns:xlink="http://www.w3.org/1999/xlink" width="69.199" height="69.199" viewBox="0 0 69.199 69.199">
  <defs>
    <filter id="Path_11526" x="0" y="0" width="69.199" height="69.199" filterUnits="userSpaceOnUse">
      <feOffset input="SourceAlpha"/>
      <feGaussianBlur stdDeviation="0.5" result="blur"/>
      <feFlood flood-opacity="0.161"/>
      <feComposite operator="in" in2="blur"/>
      <feComposite in="SourceGraphic"/>
    </filter>
  </defs>
  <g id="Group_4522" data-name="Group 4522" transform="translate(1.6 1.6)">
    <g transform="matrix(1, 0, 0, 1, -1.6, -1.6)" filter="url(#Path_11526)">
      <g id="Path_11526-2" data-name="Path 11526" transform="translate(-3290.4 -16870.4)" fill="#fff">
        <path d="M 3324.999267578125 16938.052734375 C 3320.546630859375 16938.052734375 3316.218017578125 16937.177734375 3312.133544921875 16935.455078125 C 3308.191650390625 16933.78125 3304.657958984375 16931.396484375 3301.630859375 16928.365234375 C 3298.595458984375 16925.3359375 3296.2119140625 16921.802734375 3294.546630859375 16917.86328125 C 3292.823486328125 16913.791015625 3291.94970703125 16909.46484375 3291.94970703125 16905.001953125 C 3291.94970703125 16900.53515625 3292.823486328125 16896.20703125 3294.546630859375 16892.13671875 C 3296.208984375 16888.203125 3298.592529296875 16884.66796875 3301.630859375 16881.62890625 C 3304.66064453125 16878.59765625 3308.1943359375 16876.216796875 3312.133544921875 16874.548828125 C 3316.2041015625 16872.826171875 3320.532958984375 16871.951171875 3324.999267578125 16871.951171875 C 3329.465576171875 16871.951171875 3333.79443359375 16872.826171875 3337.864990234375 16874.548828125 C 3341.808837890625 16876.21875 3345.343994140625 16878.599609375 3348.3720703125 16881.62890625 C 3351.40869140625 16884.669921875 3353.790771484375 16888.205078125 3355.451904296875 16892.13671875 C 3357.175048828125 16896.20703125 3358.048828125 16900.53515625 3358.048828125 16905.001953125 C 3358.048828125 16909.46484375 3357.175048828125 16913.791015625 3355.451904296875 16917.86328125 C 3353.787841796875 16921.798828125 3351.40576171875 16925.33203125 3348.3720703125 16928.365234375 C 3345.332275390625 16931.404296875 3341.797119140625 16933.791015625 3337.864990234375 16935.455078125 C 3333.780517578125 16937.177734375 3329.451904296875 16938.052734375 3324.999267578125 16938.052734375 Z M 3324.999267578125 16878.05078125 C 3321.350830078125 16878.05078125 3317.822021484375 16878.76171875 3314.510498046875 16880.16796875 C 3311.302001953125 16881.51953125 3308.419677734375 16883.4609375 3305.94384765625 16885.94140625 C 3303.468994140625 16888.419921875 3301.526123046875 16891.302734375 3300.169189453125 16894.5078125 C 3298.76416015625 16897.83203125 3298.052001953125 16901.36328125 3298.052001953125 16905.001953125 C 3298.052001953125 16908.638671875 3298.76416015625 16912.16796875 3300.169189453125 16915.490234375 C 3301.527099609375 16918.697265625 3303.469970703125 16921.578125 3305.94384765625 16924.052734375 C 3308.419677734375 16926.529296875 3311.302001953125 16928.470703125 3314.510498046875 16929.826171875 C 3317.822021484375 16931.232421875 3321.350830078125 16931.943359375 3324.999267578125 16931.943359375 C 3328.647705078125 16931.943359375 3332.176513671875 16931.232421875 3335.48779296875 16929.826171875 C 3338.70361328125 16928.46875 3341.5859375 16926.525390625 3344.054443359375 16924.052734375 C 3346.530029296875 16921.58203125 3348.474365234375 16918.701171875 3349.83349609375 16915.490234375 C 3351.238525390625 16912.16796875 3351.95068359375 16908.638671875 3351.95068359375 16905.001953125 C 3351.95068359375 16901.36328125 3351.238525390625 16897.83203125 3349.83349609375 16894.5078125 C 3348.475341796875 16891.30078125 3346.531005859375 16888.41796875 3344.054443359375 16885.94140625 C 3341.578369140625 16883.4609375 3338.696044921875 16881.517578125 3335.488037109375 16880.16796875 C 3332.176513671875 16878.76171875 3328.647705078125 16878.05078125 3324.999267578125 16878.05078125 Z M 3324.999267578125 16930.046875 C 3321.61767578125 16930.046875 3318.337158203125 16929.384765625 3315.248779296875 16928.078125 C 3312.265869140625 16926.81640625 3309.587158203125 16925.009765625 3307.28662109375 16922.708984375 C 3304.986083984375 16920.41015625 3303.179931640625 16917.73046875 3301.918212890625 16914.748046875 C 3300.612060546875 16911.66015625 3299.94970703125 16908.37890625 3299.94970703125 16904.998046875 C 3299.94970703125 16901.615234375 3300.612060546875 16898.3359375 3301.918212890625 16895.24609375 C 3303.179931640625 16892.263671875 3304.986083984375 16889.583984375 3307.28662109375 16887.28515625 C 3309.5869140625 16884.984375 3312.265869140625 16883.177734375 3315.248779296875 16881.916015625 C 3318.337158203125 16880.609375 3321.61767578125 16879.947265625 3324.999267578125 16879.947265625 C 3328.380859375 16879.947265625 3331.661376953125 16880.609375 3334.749755859375 16881.916015625 C 3337.732666015625 16883.177734375 3340.411376953125 16884.984375 3342.7119140625 16887.28515625 C 3345.01220703125 16889.583984375 3346.818359375 16892.263671875 3348.080078125 16895.24609375 C 3349.38623046875 16898.3359375 3350.048583984375 16901.615234375 3350.048583984375 16904.998046875 C 3350.048583984375 16908.37890625 3349.38623046875 16911.66015625 3348.080078125 16914.748046875 C 3346.818359375 16917.73046875 3345.01220703125 16920.41015625 3342.7119140625 16922.708984375 C 3340.411376953125 16925.009765625 3337.732421875 16926.81640625 3334.749755859375 16928.078125 C 3331.661376953125 16929.384765625 3328.380859375 16930.046875 3324.999267578125 16930.046875 Z" stroke="none"/>
        <path d="M 3324.999267578125 16938.001953125 C 3329.45849609375 16938.001953125 3333.77734375 16937.125 3337.845458984375 16935.408203125 C 3341.773193359375 16933.74609375 3345.301513671875 16931.365234375 3348.336669921875 16928.330078125 C 3351.36328125 16925.3046875 3353.74365234375 16921.775390625 3355.40576171875 16917.84375 C 3357.12744140625 16913.775390625 3357.998779296875 16909.45703125 3357.998779296875 16905.001953125 C 3357.998779296875 16900.546875 3357.12744140625 16896.22265625 3355.40576171875 16892.15625 C 3353.74365234375 16888.22265625 3351.36328125 16884.6953125 3348.336669921875 16881.6640625 C 3345.3056640625 16878.6328125 3341.773193359375 16876.2578125 3337.845458984375 16874.595703125 C 3333.77734375 16872.873046875 3329.45849609375 16872.001953125 3324.999267578125 16872.001953125 C 3320.544189453125 16872.001953125 3316.22119140625 16872.873046875 3312.153076171875 16874.595703125 C 3308.225341796875 16876.2578125 3304.697021484375 16878.6328125 3301.666259765625 16881.6640625 C 3298.63525390625 16884.6953125 3296.2548828125 16888.22265625 3294.5927734375 16892.15625 C 3292.87109375 16896.22265625 3291.999755859375 16900.546875 3291.999755859375 16905.001953125 C 3291.999755859375 16909.45703125 3292.87109375 16913.775390625 3294.5927734375 16917.84375 C 3296.2548828125 16921.775390625 3298.63525390625 16925.3046875 3301.666259765625 16928.330078125 C 3304.69287109375 16931.361328125 3308.225341796875 16933.7421875 3312.153076171875 16935.408203125 C 3316.22119140625 16937.125 3320.544189453125 16938.001953125 3324.999267578125 16938.001953125 M 3324.999267578125 16878 C 3328.642333984375 16878 3332.178955078125 16878.708984375 3335.50732421875 16880.12109375 C 3338.725341796875 16881.4765625 3341.611572265625 16883.423828125 3344.08984375 16885.90625 C 3346.572509765625 16888.388671875 3348.519287109375 16891.275390625 3349.879638671875 16894.48828125 C 3351.28662109375 16897.818359375 3352.000732421875 16901.353515625 3352.000732421875 16905.001953125 C 3352.000732421875 16908.64453125 3351.28662109375 16912.181640625 3349.879638671875 16915.509765625 C 3348.519287109375 16918.72265625 3346.572509765625 16921.609375 3344.08984375 16924.087890625 C 3341.615966796875 16926.56640625 3338.725341796875 16928.513671875 3335.50732421875 16929.873046875 C 3332.178955078125 16931.28515625 3328.642333984375 16931.994140625 3324.999267578125 16931.994140625 C 3321.356201171875 16931.994140625 3317.819580078125 16931.28515625 3314.490966796875 16929.873046875 C 3311.273193359375 16928.513671875 3308.38671875 16926.56640625 3305.908447265625 16924.087890625 C 3303.43017578125 16921.609375 3301.4833984375 16918.72265625 3300.123046875 16915.509765625 C 3298.716064453125 16912.181640625 3298.001953125 16908.64453125 3298.001953125 16905.001953125 C 3298.001953125 16901.353515625 3298.716064453125 16897.818359375 3300.123046875 16894.48828125 C 3301.4833984375 16891.275390625 3303.43017578125 16888.388671875 3305.908447265625 16885.90625 C 3308.38671875 16883.423828125 3311.273193359375 16881.4765625 3314.490966796875 16880.12109375 C 3317.819580078125 16878.708984375 3321.356201171875 16878 3324.999267578125 16878 M 3324.999267578125 16929.99609375 C 3338.80615234375 16929.99609375 3349.99853515625 16918.8046875 3349.99853515625 16904.998046875 C 3349.99853515625 16891.189453125 3338.80615234375 16879.998046875 3324.999267578125 16879.998046875 C 3311.1923828125 16879.998046875 3299.999755859375 16891.189453125 3299.999755859375 16904.998046875 C 3299.999755859375 16918.8046875 3311.1923828125 16929.99609375 3324.999267578125 16929.99609375 M 3324.999267578125 16938.1015625 C 3320.5400390625 16938.1015625 3316.204833984375 16937.2265625 3312.1142578125 16935.5 C 3308.166015625 16933.826171875 3304.627197265625 16931.4375 3301.595458984375 16928.400390625 C 3298.555419921875 16925.3671875 3296.16845703125 16921.828125 3294.500732421875 16917.8828125 C 3292.77490234375 16913.8046875 3291.899658203125 16909.470703125 3291.899658203125 16905.001953125 C 3291.899658203125 16900.529296875 3292.77490234375 16896.193359375 3294.500732421875 16892.1171875 C 3296.16552734375 16888.177734375 3298.552490234375 16884.63671875 3301.595458984375 16881.59375 C 3304.6298828125 16878.55859375 3308.1689453125 16876.173828125 3312.114013671875 16874.50390625 C 3316.19091796875 16872.77734375 3320.526123046875 16871.90234375 3324.999267578125 16871.90234375 C 3329.472412109375 16871.90234375 3333.8076171875 16872.77734375 3337.884521484375 16874.50390625 C 3341.834228515625 16876.17578125 3345.374755859375 16878.560546875 3348.407470703125 16881.59375 C 3351.44873046875 16884.638671875 3353.834228515625 16888.1796875 3355.497802734375 16892.1171875 C 3357.2236328125 16896.193359375 3358.098876953125 16900.529296875 3358.098876953125 16905.001953125 C 3358.098876953125 16909.470703125 3357.2236328125 16913.8046875 3355.497802734375 16917.8828125 C 3353.831298828125 16921.82421875 3351.44580078125 16925.36328125 3348.407470703125 16928.400390625 C 3345.363037109375 16931.4453125 3341.822509765625 16933.833984375 3337.884521484375 16935.5 C 3333.793701171875 16937.2265625 3329.45849609375 16938.1015625 3324.999267578125 16938.1015625 Z M 3324.999267578125 16878.099609375 C 3321.357666015625 16878.099609375 3317.835205078125 16878.810546875 3314.530029296875 16880.212890625 C 3311.327392578125 16881.5625 3308.45068359375 16883.501953125 3305.979248046875 16885.9765625 C 3303.509033203125 16888.451171875 3301.56982421875 16891.328125 3300.215087890625 16894.52734375 C 3298.81298828125 16897.845703125 3298.10205078125 16901.37109375 3298.10205078125 16905.001953125 C 3298.10205078125 16908.630859375 3298.81298828125 16912.154296875 3300.215087890625 16915.470703125 C 3301.57080078125 16918.671875 3303.510009765625 16921.546875 3305.979248046875 16924.017578125 C 3308.450439453125 16926.48828125 3311.327392578125 16928.427734375 3314.52978515625 16929.78125 C 3317.835205078125 16931.18359375 3321.357666015625 16931.89453125 3324.999267578125 16931.89453125 C 3328.64111328125 16931.89453125 3332.163330078125 16931.18359375 3335.46826171875 16929.78125 C 3338.67822265625 16928.42578125 3341.55517578125 16926.486328125 3344.01904296875 16924.017578125 C 3346.490234375 16921.55078125 3348.430908203125 16918.67578125 3349.78759765625 16915.470703125 C 3351.189697265625 16912.154296875 3351.900634765625 16908.630859375 3351.900634765625 16905.001953125 C 3351.900634765625 16901.37109375 3351.189697265625 16897.845703125 3349.78759765625 16894.52734375 C 3348.431884765625 16891.326171875 3346.4912109375 16888.44921875 3344.01904296875 16885.9765625 C 3341.547607421875 16883.501953125 3338.670654296875 16881.5625 3335.468505859375 16880.212890625 C 3332.163330078125 16878.810546875 3328.64111328125 16878.099609375 3324.999267578125 16878.099609375 Z M 3324.999267578125 16930.095703125 C 3321.61083984375 16930.095703125 3318.32373046875 16929.431640625 3315.229248046875 16928.123046875 C 3312.240478515625 16926.859375 3309.55615234375 16925.05078125 3307.251220703125 16922.74609375 C 3304.946044921875 16920.439453125 3303.136474609375 16917.755859375 3301.872314453125 16914.767578125 C 3300.5634765625 16911.673828125 3299.899658203125 16908.38671875 3299.899658203125 16904.998046875 C 3299.899658203125 16901.609375 3300.5634765625 16898.322265625 3301.872314453125 16895.2265625 C 3303.136474609375 16892.23828125 3304.946044921875 16889.5546875 3307.251220703125 16887.25 C 3309.55615234375 16884.943359375 3312.240478515625 16883.134765625 3315.229248046875 16881.87109375 C 3318.32373046875 16880.5625 3321.61083984375 16879.8984375 3324.999267578125 16879.8984375 C 3328.3876953125 16879.8984375 3331.6748046875 16880.5625 3334.76904296875 16881.87109375 C 3337.758056640625 16883.134765625 3340.442138671875 16884.943359375 3342.747314453125 16887.25 C 3345.05224609375 16889.5546875 3346.862060546875 16892.23828125 3348.1259765625 16895.2265625 C 3349.434814453125 16898.322265625 3350.0986328125 16901.609375 3350.0986328125 16904.998046875 C 3350.0986328125 16908.38671875 3349.434814453125 16911.673828125 3348.1259765625 16914.767578125 C 3346.862060546875 16917.755859375 3345.05224609375 16920.439453125 3342.747314453125 16922.74609375 C 3340.442138671875 16925.05078125 3337.758056640625 16926.859375 3334.76904296875 16928.123046875 C 3331.6748046875 16929.431640625 3328.3876953125 16930.095703125 3324.999267578125 16930.095703125 Z" stroke="none" fill="#5f5f5f"/>
      </g>
    </g>
  </g>
</svg>
