<svg xmlns="http://www.w3.org/2000/svg" width="32.658" height="26" viewBox="0 0 32.658 26">
  <path id="Path_13042" data-name="Path 13042" d="M32.658,6.126A6.125,6.125,0,0,0,20.881,3.765a2.82,2.82,0,0,0-2.142-1H11.223A2.829,2.829,0,0,0,8.6,4.559L7.673,6.97h-4.4A3.281,3.281,0,0,0,0,10.246V22.723A3.281,3.281,0,0,0,3.277,26H26.683a3.281,3.281,0,0,0,3.277-3.277V11.2a6.125,6.125,0,0,0,2.7-5.074M26.532,1.47a4.656,4.656,0,1,1-4.655,4.656A4.661,4.661,0,0,1,26.532,1.47m1.556,21.253a1.406,1.406,0,0,1-1.4,1.4H3.277a1.406,1.406,0,0,1-1.4-1.4V10.246a1.406,1.406,0,0,1,1.4-1.4H8.315a.936.936,0,0,0,.873-.6l1.162-3.009a.93.93,0,0,1,.874-.6h7.515a.94.94,0,0,1,.874.6l1.161,3.009a.747.747,0,0,0,.052.092,6.085,6.085,0,0,0,7.263,3.709ZM29.7,6.126a.749.749,0,0,1-.749.749H27.282V8.547a.749.749,0,1,1-1.5,0V6.875H24.111a.749.749,0,1,1,0-1.5h1.673V3.7a.749.749,0,0,1,1.5,0V5.377h1.672a.749.749,0,0,1,.749.749M14.98,7.407a8.146,8.146,0,1,0,8.146,8.146A8.155,8.155,0,0,0,14.98,7.407m0,15.083a6.937,6.937,0,1,1,6.937-6.937A6.945,6.945,0,0,1,14.98,22.49m-3.694-4.012H9.976v-5.85h1.31Zm2.175,0h-1.31v-5.85h1.31Zm2.174,0h-1.31v-5.85h1.31Zm2.175,0H16.5v-5.85h1.31Zm2.175,0h-1.31v-5.85h1.31Z" fill="#fff"/>
</svg>
