<svg xmlns="http://www.w3.org/2000/svg" width="26.974" height="22.327" viewBox="0 0 26.974 22.327">
  <g id="Group_4514" data-name="Group 4514" transform="translate(0 0)">
    <path id="Union_3" data-name="Union 3" d="M13.505,14.828A11.234,11.234,0,0,1,2.491,4.7H.5a.5.5,0,0,1-.39-.813L3.07.187a.5.5,0,0,1,.781,0l2.959,3.7A.5.5,0,0,1,6.42,4.7H4a9.73,9.73,0,0,0,9.52,8.627h.021a9.257,9.257,0,0,0,4.279-1.055,9.779,9.779,0,0,0,3.3-2.83.75.75,0,1,1,1.205.892A11.315,11.315,0,0,1,18.515,13.6a10.791,10.791,0,0,1-4.983,1.226Z" transform="translate(0 7.5)" fill="#fff"/>
    <path id="Union_4" data-name="Union 4" d="M13.505,14.828A11.234,11.234,0,0,1,2.491,4.7H.5a.5.5,0,0,1-.39-.813L3.07.187a.5.5,0,0,1,.781,0l2.959,3.7A.5.5,0,0,1,6.42,4.7H4a9.73,9.73,0,0,0,9.52,8.627h.021a9.257,9.257,0,0,0,4.279-1.055,9.779,9.779,0,0,0,3.3-2.83.75.75,0,1,1,1.205.892A11.315,11.315,0,0,1,18.515,13.6a10.791,10.791,0,0,1-4.983,1.226Z" transform="translate(26.975 14.828) rotate(180)" fill="#fff"/>
  </g>
</svg>
