<svg id="Group_28789" data-name="Group 28789" xmlns="http://www.w3.org/2000/svg" width="28" height="28" viewBox="0 0 28 28">
  <rect id="Rectangle_141" data-name="Rectangle 141" width="28" height="28" rx="3" transform="translate(0 0)" fill="#99a3b1"/>
  <path id="Union_7" data-name="Union 7" d="M17781.191,5005.608l-3.535-3.537-3.535,3.537a1,1,0,0,1-1.414-1.415l3.535-3.536-3.535-3.538a1,1,0,0,1,1.414-1.415l3.537,3.538,3.537-3.538a1,1,0,0,1,1.41,1.415l-3.535,3.537,3.535,3.537a1,1,0,0,1,0,1.415.993.993,0,0,1-.705.291A1,1,0,0,1,17781.191,5005.608Z" transform="translate(-17763.658 -4986.657)" fill="#fff"/>
</svg>
