<svg xmlns="http://www.w3.org/2000/svg" width="56" height="55.999" viewBox="0 0 56 55.999">
  <path id="Path_13112" data-name="Path 13112" d="M28,0A28,28,0,1,1,0,28,28,28,0,0,1,28,0Z" fill="#51c17d"/>
  <path id="Path_13111" data-name="Path 13111" d="M10.588,15.451a.156.156,0,0,0,.225,0L24.912.665a2.123,2.123,0,0,1,3-.088c.031.029.06.06.088.088a2.367,2.367,0,0,1,0,3.241L11.434,21.282a1.015,1.015,0,0,1-1.468,0L.64,11.519a2.372,2.372,0,0,1,0-3.241,2.123,2.123,0,0,1,3-.088c.031.029.06.06.088.088Z" transform="translate(14.614 18.239)" fill="#fff"/>
</svg>
