<svg width="35" height="35" viewBox="0 0 35 35" fill="none" xmlns="http://www.w3.org/2000/svg">
<path d="M30 0C30.2 0 30.4 0 30.6 0C30.76 0.39 30.98 0.76 31.08 1.16C31.38 2.42 31.6 3.69 31.92 4.94C32.15 5.84 32.05 6.4 31.03 6.75C29.86 7.15 29.33 8.38 29.6 9.6C29.84 10.7 30.89 11.65 32.05 11.52C33.21 11.39 33.47 11.94 33.63 12.88C33.75 13.59 33.68 14.46 34.6 14.79C34.6 16.92 34.6 19.06 34.6 21.19C34.25 21.33 33.9 21.54 33.53 21.6C32 21.88 30.99 22.98 30.97 24.43C30.95 25.9 31.93 27.02 33.44 27.34C33.84 27.42 34.21 27.64 34.59 27.79C34.59 30.05 34.59 32.31 34.59 34.58C23.06 34.58 11.52 34.58 -0.0100098 34.58C-0.0100098 32.31 -0.0100098 30.05 -0.0100098 27.79C0.40999 27.63 0.80999 27.42 1.23999 27.32C2.68999 26.99 3.62999 25.87 3.60999 24.43C3.58999 23.02 2.59999 21.9 1.14999 21.61C0.74999 21.53 0.36999 21.33 -0.0100098 21.18C-0.0100098 19.05 -0.0100098 16.91 -0.0100098 14.78C0.44999 14.65 0.90999 14.44 1.37999 14.42C2.58999 14.37 3.79999 14.4 5.17999 14.4C4.53999 13.22 3.71999 12.69 2.58999 12.8C1.77999 12.88 1.45999 12.56 1.30999 11.8C1.05999 10.43 0.74999 9.06 0.41999 7.71C0.19999 6.79 0.54999 6.41 1.45999 6.22C8.38999 4.76 15.32 3.27 22.24 1.77C24.83 1.21 27.41 0.59 30 0ZM1.47999 15.89C1.47999 17.24 1.44999 18.5 1.50999 19.75C1.51999 19.97 1.84999 20.27 2.09999 20.38C4.00999 21.18 5.05999 22.59 5.05999 24.47C5.06999 26.38 4.03999 27.78 2.03999 28.62C1.82999 28.71 1.51999 28.92 1.50999 29.09C1.46999 30.41 1.48999 31.73 1.48999 33.06C3.72999 33.06 5.80999 33.06 7.96999 33.06C7.96999 32.63 7.96999 32.27 7.96999 31.91C7.96999 30.24 7.93999 28.58 7.99999 26.91C8.00999 26.59 8.40999 26.29 8.62999 25.97C8.87999 26.29 9.18999 26.58 9.36999 26.93C9.47999 27.14 9.38999 27.45 9.38999 27.72C9.38999 29.48 9.38999 31.24 9.38999 33.06C17.32 33.06 25.16 33.06 33.11 33.06C33.11 31.73 33.14 30.47 33.08 29.22C33.07 29 32.73 28.71 32.48 28.61C30.6 27.84 29.53 26.38 29.53 24.51C29.53 22.63 30.58 21.18 32.47 20.41C32.71 20.31 33.07 20.08 33.08 19.9C33.13 18.58 33.11 17.26 33.11 15.95C30.87 15.95 28.79 15.95 26.63 15.95C26.63 16.38 26.63 16.74 26.63 17.11C26.63 18.78 26.66 20.44 26.6 22.11C26.59 22.43 26.19 22.74 25.97 23.05C25.72 22.73 25.27 22.43 25.24 22.1C25.15 20.94 25.2 19.77 25.2 18.6C25.2 17.72 25.2 16.84 25.2 15.92C17.25 15.89 9.45999 15.89 1.47999 15.89ZM29.71 1.63C23 3.07 16.42 4.49 9.76999 5.92C10.34 8.8 10.9 11.57 11.45 14.36C18.46 14.36 25.41 14.36 32.45 14.36C32.34 13.88 32.25 13.47 32.16 13.08C31.68 12.98 31.25 12.92 30.84 12.79C28.02 11.89 27.03 8.19 29.27 6.3C30.44 5.32 30.47 4.48 30.07 3.28C29.92 2.79 29.85 2.26 29.71 1.63ZM9.99999 14.42C9.43999 11.6 8.89999 8.94 8.35999 6.22C6.15999 6.7 4.06999 7.16 1.90999 7.63C2.15999 8.79 2.33999 9.83 2.61999 10.85C2.67999 11.07 3.02999 11.33 3.27999 11.37C4.81999 11.63 5.87999 12.45 6.52999 13.87C6.63999 14.11 6.95999 14.38 7.19999 14.4C8.07999 14.45 8.97999 14.42 9.99999 14.42Z" fill="white"/>
<path d="M4.79997 0C5.17997 0.25 5.61997 0.45 5.93997 0.77C6.79997 1.65 6.67997 3.09 5.71997 3.87C4.78997 4.63 3.43997 4.48 2.68997 3.55C1.91997 2.58 2.10997 1.17 3.12997 0.46C3.38997 0.27 3.70997 0.15 3.99997 0C4.26997 0 4.52997 0 4.79997 0ZM4.33997 3.22C4.66997 2.76 5.01997 2.48 4.99997 2.24C4.97997 1.99 4.59997 1.57 4.37997 1.57C4.12997 1.57 3.72997 1.95 3.69997 2.2C3.65997 2.44 4.01997 2.73 4.33997 3.22Z" fill="white"/>
<path d="M20.77 21.45C20.55 21.75 20.4 22.01 20.2 22.21C18.35 24.07 16.49 25.92 14.64 27.78C14.26 28.16 13.8 28.52 13.4 27.99C13.23 27.77 13.37 27.08 13.6 26.83C15.46 24.89 17.37 22.99 19.3 21.12C19.52 20.91 19.94 20.84 20.26 20.85C20.43 20.86 20.58 21.2 20.77 21.45Z" fill="white"/>
<path d="M16.53 21.99C16.5 23.17 15.51 24.11 14.32 24.08C13.13 24.05 12.19 23.07 12.22 21.89C12.25 20.71 13.24 19.77 14.42 19.79C15.6 19.82 16.56 20.82 16.53 21.99ZM14.32 22.95C14.67 22.5 15.03 22.23 15.01 21.99C14.99 21.73 14.63 21.49 14.41 21.24C14.16 21.46 13.76 21.65 13.71 21.91C13.67 22.14 14.01 22.45 14.32 22.95Z" fill="white"/>
<path d="M17.32 27.02C17.32 25.84 18.3 24.86 19.47 24.87C20.64 24.88 21.61 25.87 21.6 27.04C21.59 28.22 20.62 29.19 19.44 29.18C18.27 29.18 17.31 28.21 17.32 27.02ZM20.46 27.05C20 26.72 19.72 26.37 19.48 26.39C19.23 26.41 18.82 26.8 18.82 27.02C18.82 27.26 19.2 27.67 19.45 27.7C19.7 27.72 19.99 27.37 20.46 27.05Z" fill="white"/>
<path d="M25.23 25.87C25.23 25.4 25.23 25.01 25.23 24.55C25.67 24.55 26.08 24.55 26.56 24.55C26.56 24.98 26.56 25.39 26.56 25.87C26.15 25.87 25.74 25.87 25.23 25.87Z" fill="white"/>
<path d="M8.01001 18.68C8.01001 18.23 8.01001 17.84 8.01001 17.38C8.45001 17.38 8.85001 17.38 9.33001 17.38C9.33001 17.79 9.33001 18.2 9.33001 18.68C8.93001 18.68 8.52001 18.68 8.01001 18.68Z" fill="white"/>
<path d="M8.02002 21.56C8.02002 21.1 8.02002 20.7 8.02002 20.24C8.48002 20.24 8.88002 20.24 9.34002 20.24C9.34002 20.7 9.34002 21.1 9.34002 21.56C8.91002 21.56 8.53002 21.56 8.02002 21.56Z" fill="white"/>
<path d="M8.02002 24.39C8.02002 23.96 8.02002 23.58 8.02002 23.11C8.43002 23.11 8.84002 23.11 9.32002 23.11C9.32002 23.49 9.32002 23.9 9.32002 24.39C8.94002 24.39 8.53002 24.39 8.02002 24.39Z" fill="white"/>
<path d="M26.58 27.46C26.58 27.89 26.58 28.29 26.58 28.75C26.12 28.75 25.72 28.75 25.26 28.75C25.26 28.31 25.26 27.93 25.26 27.46C25.65 27.46 26.05 27.46 26.58 27.46Z" fill="white"/>
<path d="M26.58 30.28C26.58 30.72 26.58 31.1 26.58 31.57C26.16 31.57 25.73 31.57 25.26 31.57C25.26 31.14 25.26 30.73 25.26 30.28C25.69 30.28 26.07 30.28 26.58 30.28Z" fill="white"/>
<path d="M14.35 12.29C14.18 12.13 13.86 11.98 13.81 11.76C13.75 11.53 13.89 11.18 14.06 10.99C14.22 10.81 14.52 10.75 14.78 10.67C18.02 9.58 21.27 8.5 24.51 7.42C25.02 7.25 25.6 7.01 25.85 7.73C26.1 8.46 25.48 8.62 24.97 8.78C21.69 9.87 18.42 10.96 15.14 12.05C14.92 12.14 14.69 12.19 14.35 12.29Z" fill="white"/>
<path d="M15.14 8.72C14.93 8.54 14.56 8.38 14.51 8.14C14.46 7.9 14.66 7.41 14.86 7.35C17.29 6.57 19.73 5.84 22.19 5.15C22.4 5.09 22.92 5.38 22.94 5.56C22.98 5.84 22.78 6.35 22.57 6.42C20.15 7.21 17.7 7.94 15.14 8.72Z" fill="white"/>
</g>
<defs>
<clipPath id="clip0_10_268">
<rect width="34.6" height="34.59" fill="white"/>
</clipPath>
</defs>
<g clip-path="url(#clip0_10_268)">
</svg>
