<svg xmlns="http://www.w3.org/2000/svg" width="64" height="64" viewBox="0 0 64 64">
    <g id="Group_21043" data-name="Group 21043" transform="translate(12101 20826)">
      <circle id="Ellipse_139" data-name="Ellipse 139" cx="32" cy="32" r="32" transform="translate(-12101 -20826)" fill="#fff"/>
      <g id="Group_23407" data-name="Group 23407" transform="translate(2160.43 -5135.451)">
        <path id="Path_13112" data-name="Path 13112" d="M28,0A28,28,0,1,1,0,28,28,28,0,0,1,28,0Z" transform="translate(-14257.43 -15686.548)" fill="#51c17d"/>
        <path id="Path_13111" data-name="Path 13111" d="M10.588,15.451a.156.156,0,0,0,.225,0L24.912.665a2.123,2.123,0,0,1,3-.088c.031.029.06.06.088.088a2.367,2.367,0,0,1,0,3.241L11.434,21.282a1.015,1.015,0,0,1-1.468,0L.64,11.519a2.372,2.372,0,0,1,0-3.241,2.123,2.123,0,0,1,3-.088c.031.029.06.06.088.088Z" transform="translate(-14242.815 -15668.309)" fill="#fff"/>
      </g>
    </g>
  </svg>
  