<svg xmlns="http://www.w3.org/2000/svg" width="35.422" height="36.42" viewBox="0 0 35.422 36.42">
  <g id="Group_242" data-name="Group 242" transform="translate(-42.922 -969.332)">
    <path id="Path_109" data-name="Path 109" d="M52.23,976.19a.85.85,0,0,0,.663.32H63.178a.848.848,0,0,0,.849-.848.888.888,0,0,0-.04-.257l-.283-1.226a13.536,13.536,0,0,0-11.344,0l-.3,1.294A.848.848,0,0,0,52.23,976.19Z" transform="translate(2.598 1.026)" fill="#518ced"/>
    <path id="Path_110" data-name="Path 110" d="M63.118,973.347l-.767-3.355a.849.849,0,0,0-.826-.66H54.215a.85.85,0,0,0-.827.66l-.766,3.355a15.151,15.151,0,0,1,10.5,0Z" transform="translate(2.763 0)" fill="#518ced"/>
    <path id="Path_111" data-name="Path 111" d="M52.622,994.553l.766,3.357a.851.851,0,0,0,.827.659h7.309a.849.849,0,0,0,.826-.659l.767-3.356a15.12,15.12,0,0,1-10.5,0Z" transform="translate(2.763 7.183)" fill="#518ced"/>
    <path id="Path_112" data-name="Path 112" d="M64.027,992.141a.848.848,0,0,0-.849-.847H52.893a.848.848,0,0,0-.827,1.036l.3,1.292a13.516,13.516,0,0,0,11.344,0l.283-1.223A.9.9,0,0,0,64.027,992.141Z" transform="translate(2.598 6.255)" fill="#518ced"/>
    <path id="Path_113" data-name="Path 113" d="M50.971,974.681l-3.3-1.016a.846.846,0,0,0-.983.385l-3.654,6.33a.846.846,0,0,0,.157,1.045l2.525,2.345A15.138,15.138,0,0,1,50.971,974.681Z" transform="translate(0 1.223)" fill="#518ced"/>
    <path id="Path_114" data-name="Path 114" d="M47.861,985.826a.842.842,0,0,0,.606-.414l5.143-8.906h0a.846.846,0,0,0-.31-1.158.8.8,0,0,0-.243-.094l-1.2-.37a13.583,13.583,0,0,0-5.676,9.822l.973.9A.85.85,0,0,0,47.861,985.826Z" transform="translate(0.929 1.581)" fill="#518ced"/>
    <path id="Path_115" data-name="Path 115" d="M69.481,985.491a15.138,15.138,0,0,1-5.256,9.09l3.3,1.015a.846.846,0,0,0,.984-.387l3.654-6.328a.849.849,0,0,0-.157-1.046Z" transform="translate(6.067 4.602)" fill="#518ced"/>
    <path id="Path_116" data-name="Path 116" d="M68.9,984.738l-.925-.858a.9.9,0,0,0-.2-.163.848.848,0,0,0-1.159.311l0,0-5.14,8.9a.848.848,0,0,0,.484,1.235l1.26.388A13.59,13.59,0,0,0,68.9,984.738Z" transform="translate(5.252 4.064)" fill="#518ced"/>
    <path id="Path_117" data-name="Path 117" d="M45.719,985.492l-2.525,2.343a.846.846,0,0,0-.157,1.046l3.654,6.328a.846.846,0,0,0,.984.387l3.3-1.015A15.138,15.138,0,0,1,45.719,985.492Z" transform="translate(0 4.602)" fill="#518ced"/>
    <path id="Path_118" data-name="Path 118" d="M53.664,993.668a.838.838,0,0,0-.054-.734l-5.142-8.9v0a.847.847,0,0,0-1.158-.311.914.914,0,0,0-.2.163l-.924.858a13.587,13.587,0,0,0,5.68,9.82l1.263-.388A.845.845,0,0,0,53.664,993.668Z" transform="translate(0.929 4.064)" fill="#518ced"/>
    <path id="Path_119" data-name="Path 119" d="M69.48,983.769l2.526-2.345a.847.847,0,0,0,.155-1.046l-3.654-6.329a.845.845,0,0,0-.983-.385l-3.3,1.016A15.134,15.134,0,0,1,69.48,983.769Z" transform="translate(6.068 1.223)" fill="#518ced"/>
    <path id="Path_120" data-name="Path 120" d="M61.788,975.347a.846.846,0,0,0-.312,1.158h0l5.14,8.906a.847.847,0,0,0,1.309.2l.975-.9a13.582,13.582,0,0,0-5.679-9.822l-1.2.37A.738.738,0,0,0,61.788,975.347Z" transform="translate(5.252 1.581)" fill="#518ced"/>
  </g>
</svg>
