<svg xmlns="http://www.w3.org/2000/svg" width="25.884" height="19.665" viewBox="0 0 25.884 19.665">
  <g id="Group_3197" data-name="Group 3197" transform="translate(0.5 0.5)">
    <g id="Group_217" data-name="Group 217">
      <path id="Path" d="M9.228,0h6.43a1.838,1.838,0,0,1,1.291.641l1.767,2.605a.929.929,0,0,0,.766.407h3.8a1.61,1.61,0,0,1,1.6,1.62V17.044a1.612,1.612,0,0,1-1.6,1.621H1.6A1.611,1.611,0,0,1,0,17.044V5.273a1.612,1.612,0,0,1,1.6-1.62H5.419a.9.9,0,0,0,.742-.393L7.936.641A1.849,1.849,0,0,1,9.228,0Z" fill="none" stroke="#fff" stroke-width="1"/>
    </g>
    <path id="Path_73" data-name="Path 73" d="M506.1,577.94a4.261,4.261,0,0,1-4.26-4.26h1.42l-2.13-2.13L499,573.68h1.42a5.679,5.679,0,0,0,10.034,3.645l-1.01-1.011A4.249,4.249,0,0,1,506.1,577.94Zm5.68-4.26a5.678,5.678,0,0,0-10.034-3.644l1.01,1.01a4.257,4.257,0,0,1,7.6,2.634h-1.42l2.13,2.13,2.13-2.13Z" transform="translate(-493.556 -562.556)" fill="#fff"/>
  </g>
</svg>
