<svg width="32" height="44" viewBox="0 0 32 44" fill="none" xmlns="http://www.w3.org/2000/svg">
<defs>
<clipPath id="clip0_10_308">
<rect width="32" height="43.19" fill="white"/>
</clipPath>
</defs>
<g clip-path="url(#clip0_10_308)">
<path d="M32 23.9C32 24.67 32 25.43 32 26.2C31.97 26.31 31.92 26.41 31.91 26.52C31.12 34.35 27.09 39.82 19.87 42.95C19.71 43.02 19.55 43.11 19.39 43.19C19.19 43.19 18.99 43.19 18.79 43.19C18.21 42.74 18.12 42.39 18.47 41.84C21.64 36.79 21.48 30.29 18.06 25.41C17.96 25.27 17.86 25.15 17.69 24.93C17.69 25.18 17.69 25.3 17.69 25.41C17.81 28.19 17.06 30.7 15.42 32.95C15.07 33.43 14.74 33.6 14.35 33.42C13.89 33.21 13.78 32.85 13.84 32.35C13.96 31.34 13.82 30.34 13.52 29.47C13.09 30.71 12.69 32.01 12.19 33.28C11.04 36.24 11.3 39.05 13.01 41.72C13.44 42.39 13.41 42.69 12.8 43.19C12.57 43.19 12.33 43.19 12.1 43.19C11.95 43.13 11.81 43.05 11.66 43C5.85 41.19 2.05 37.4 0.48 31.48C0.24 30.54 0.16 29.56 0 28.6C0 28.07 0 27.53 0 27C0.03 26.84 0.07 26.68 0.09 26.52C0.26 24.16 0.97 21.96 2.1 19.89C3.42 17.46 4.22 14.88 4.5 12.13C4.54 11.74 4.72 11.46 5.08 11.34C5.47 11.21 5.8 11.37 6.03 11.7C6.37 12.19 6.73 12.68 7.02 13.19C7.37 13.81 7.67 14.47 8.01 15.15C8.09 15.05 8.15 14.97 8.2 14.89C10.83 10.67 12.24 6.09 12.3 1.11C12.31 0.63 12.43 0.28 12.8 0C13 0 13.2 0 13.4 0C13.55 0.1 13.7 0.2 13.86 0.3C18.63 3.16 21.87 7.24 23.56 12.54C23.6 12.67 23.66 12.81 23.74 13.02C24.25 11.43 24.18 9.97 23.56 8.54C23.36 8.08 23.45 7.67 23.81 7.44C24.21 7.19 24.57 7.27 24.89 7.6C28.44 11.29 30.7 15.64 31.6 20.69C31.78 21.75 31.86 22.83 32 23.9ZM15.36 29.85C15.44 29.63 15.53 29.44 15.59 29.24C16.32 26.99 16.31 24.75 15.46 22.54C15.29 22.1 15.31 21.71 15.72 21.43C16.11 21.16 16.47 21.28 16.8 21.58C22.06 26.3 23.76 33.68 21.1 40.25C21.05 40.37 21.02 40.49 20.95 40.68C21.17 40.57 21.31 40.5 21.45 40.41C27.21 36.98 30.21 31.88 30.35 25.2C30.46 20.15 28.94 15.56 26.02 11.43C25.94 11.32 25.84 11.22 25.71 11.06C25.67 11.38 25.64 11.63 25.62 11.87C25.48 13.28 24.93 14.53 24.12 15.68C23.89 16 23.56 16.19 23.22 16.04C22.96 15.92 22.67 15.62 22.62 15.35C21.76 10.82 19.63 7.01 16.2 3.94C15.5 3.31 14.73 2.77 13.91 2.12C13.87 2.46 13.85 2.65 13.83 2.85C13.67 5 13.25 7.1 12.6 9.16C11.66 12.16 10.23 14.91 8.36 17.43C8.19 17.65 7.81 17.82 7.53 17.83C7.16 17.84 6.93 17.53 6.85 17.14C6.83 17.04 6.82 16.94 6.79 16.85C6.51 16.02 6.22 15.2 5.94 14.37C5.89 14.38 5.84 14.4 5.78 14.41C5.75 14.49 5.72 14.56 5.7 14.64C5.27 16.67 4.58 18.61 3.58 20.43C2.61 22.22 1.88 24.09 1.7 26.13C1.21 31.73 3.27 36.19 7.85 39.45C8.71 40.07 9.7 40.51 10.71 41.07C10.71 40.87 10.72 40.84 10.71 40.81C10.7 40.76 10.68 40.71 10.67 40.67C9.63 38.02 9.59 35.36 10.69 32.74C11.54 30.7 12.07 28.62 12.11 26.4C12.11 26.15 12.38 25.82 12.61 25.7C12.93 25.53 13.31 25.63 13.53 25.97C13.89 26.53 14.27 27.09 14.55 27.69C14.87 28.39 15.08 29.11 15.36 29.85Z" fill="white"/>
</g>
</svg>
