
<svg xmlns="http://www.w3.org/2000/svg" width="23.999" height="24" viewBox="0 0 23.999 24">
  <g id="Group_21628" data-name="Group 21628" transform="translate(6561 17389)">
    <path id="Subtraction_3" data-name="Subtraction 3" d="M24,24H0V0H24V24ZM6.293,17H7.708l-6,6H22.294l-6-6h1.413L23,22.293V1.707L17.707,7H16.292l6-6H1.707l6,6H6.293L1,1.707V22.293L6.293,17Z" transform="translate(-6561 -17389)" fill="#fff"/>
    <path id="Path_13965" data-name="Path 13965" d="M1.036-9.638v5.9H2.242v-5.9ZM6.807-5.6a1.111,1.111,0,0,1-1.137.99c-1.008,0-1.318-.965-1.318-2.084,0-1.068.327-2.058,1.309-2.058.81,0,1,.482,1.12.965h1.18A2.039,2.039,0,0,0,5.7-9.716c-1.723,0-2.575,1.361-2.575,3.023,0,1.688.672,3.04,2.532,3.04A2.193,2.193,0,0,0,8-5.6Zm4.41-4.117A2.7,2.7,0,0,0,8.538-6.727c0,1.671.775,3.075,2.6,3.075,1.86,0,2.679-1.369,2.679-3.066C13.818-8.3,13.008-9.716,11.216-9.716Zm-.052.956c1.051,0,1.421.956,1.421,2.041,0,1.24-.37,2.11-1.4,2.11-.93,0-1.4-.939-1.4-2.119C9.778-7.864,10.192-8.76,11.165-8.76Zm4.591,5.021V-5.565c0-1.059,0-2.076-.043-2.825h.009c.086.224.293.7,2.179,4.651h1.473v-5.9h-1.1v1.826c0,.965.009,1.929.069,2.636h-.017c-.086-.284-.37-.87-2.127-4.461H14.662v5.9Z" transform="translate(-6559.205 -17370.314)" fill="#fff"/>
  </g>
</svg>
