<svg xmlns="http://www.w3.org/2000/svg" width="19" height="20" viewBox="0 0 19 20">
  <g id="Group_28605" data-name="Group 28605" transform="translate(0 -0.001)">
    <g id="Group_28606" data-name="Group 28606">
      <path id="Path_14872" data-name="Path 14872" d="M7,20H1a1,1,0,0,1-1-1V1A1,1,0,0,1,1,0H7A1,1,0,1,1,7,2H2V18H7a1,1,0,0,1,0,2m6-4a1,1,0,0,1-.707-1.707L15.586,11H6A1,1,0,1,1,6,9h9.586L12.293,5.708a1,1,0,0,1,1.414-1.415l5,5a1,1,0,0,1,0,1.415l-5,5A1,1,0,0,1,13,16" fill="#496ca0"/>
    </g>
  </g>
</svg>
