<svg id="Group_21642" data-name="Group 21642" xmlns="http://www.w3.org/2000/svg" width="24" height="20" viewBox="0 0 24 20">
  <path id="Path_13966" data-name="Path 13966" d="M23.411,0H.589A.629.629,0,0,0,0,.662V3.977a.629.629,0,0,0,.589.663H23.411A.629.629,0,0,0,24,3.977V.662A.629.629,0,0,0,23.411,0" transform="translate(0 0.001)" fill="#fff"/>
  <path id="Path_13967" data-name="Path 13967" d="M23.411,54H.589A.629.629,0,0,0,0,54.662v3.315a.629.629,0,0,0,.589.663H23.411A.629.629,0,0,0,24,57.977V54.662A.629.629,0,0,0,23.411,54" transform="translate(0 -46.321)" fill="#fff"/>
  <path id="Path_13968" data-name="Path 13968" d="M23.411,108H.589a.629.629,0,0,0-.589.663v3.315a.629.629,0,0,0,.589.663H23.411a.629.629,0,0,0,.589-.663v-3.315a.629.629,0,0,0-.589-.663" transform="translate(0 -92.642)" fill="#fff"/>
</svg>
