<svg width="51" height="51" viewBox="0 0 51 51" fill="none" xmlns="http://www.w3.org/2000/svg">
<defs>
<clipPath id="clip0_10_2">
<rect width="50.82" height="50.99" fill="white"/>
</clipPath>
</defs>
<g clip-path="url(#clip0_10_2)">
<path d="M0.810001 50.99C-0.0399992 50.54 -0.179999 50.18 0.200001 49.26C5.32 36.78 10.43 24.31 15.55 11.83C16.07 10.56 16.82 10.17 18.19 10.44C19.74 10.74 21.09 11.5 22.39 12.34C23.49 13.05 24.56 13.83 25.75 14.65C25.77 14.61 25.79 14.5 25.85 14.43C26.96 12.93 28.1 11.46 29.19 9.94C30.92 7.54 30.98 4.34 29.38 1.86C28.81 0.97 28.9 0.54 29.8 0C29.93 0 30.07 0 30.2 0C30.51 0.3 30.9 0.56 31.13 0.92C33.08 3.94 33 8.01 30.92 10.95C29.83 12.48 28.68 13.97 27.55 15.48C27.45 15.61 27.36 15.75 27.24 15.91C28.34 16.92 29.43 17.91 30.68 19.05C30.78 18.88 30.85 18.68 30.99 18.54C34.09 15.4 37.21 12.27 40.32 9.13C40.44 9.01 40.55 8.89 40.68 8.78C41.11 8.42 41.65 8.43 42.04 8.8C42.42 9.17 42.44 9.77 42.07 10.2C41.97 10.31 41.86 10.42 41.76 10.52C38.63 13.68 35.49 16.84 32.36 20C32.24 20.12 32.13 20.24 32.01 20.37C33.01 21.46 33.99 22.54 35.01 23.66C35.12 23.58 35.25 23.5 35.36 23.42C36.85 22.28 38.32 21.1 39.84 19.99C42.89 17.77 47.16 17.75 50.24 19.92C50.5 20.1 50.7 20.44 50.8 20.75C50.92 21.13 50.7 21.47 50.36 21.67C49.98 21.9 49.6 21.87 49.23 21.62C48.41 21.06 47.52 20.67 46.54 20.47C44.71 20.1 42.95 20.33 41.41 21.37C39.65 22.56 38 23.91 36.28 25.21C36.88 26.04 37.46 26.8 38 27.6C39.02 29.11 40.01 30.63 40.44 32.43C40.56 32.92 40.57 33.45 40.52 33.96C40.46 34.59 40.1 35.04 39.48 35.3C33.42 37.79 27.37 40.3 21.3 42.79C14.63 45.5 7.97 48.19 1.32 50.9C1.28 50.92 1.25 50.96 1.21 50.99C1.08 50.99 0.940001 50.99 0.810001 50.99ZM35.38 34.82C27.46 29.92 21.06 23.51 16.14 15.58C14.78 18.91 13.4 22.27 12.03 25.64C12.23 25.8 12.4 25.94 12.57 26.07C14.88 27.67 17.14 29.35 19.52 30.85C23.17 33.16 27.05 35.03 31.22 36.24C31.39 36.29 31.6 36.35 31.74 36.29C32.97 35.81 34.19 35.3 35.38 34.82ZM11.26 27.59C11.21 27.67 11.17 27.71 11.15 27.76C10.08 30.37 9.01 32.99 7.93 35.6C7.82 35.87 7.93 35.97 8.13 36.11C11.26 38.21 14.51 40.09 17.98 41.56C18.22 41.66 18.57 41.67 18.82 41.57C21.21 40.62 23.6 39.64 25.98 38.66C26.85 38.3 27.72 37.94 28.68 37.54C22.24 35.23 16.62 31.67 11.26 27.59ZM33.42 24.9C32.46 23.85 31.53 22.82 30.57 21.77C30.13 22.22 29.74 22.64 29.33 23.03C29.17 23.18 28.96 23.34 28.75 23.4C28.31 23.52 27.93 23.37 27.67 22.98C27.41 22.59 27.45 22.12 27.82 21.75C28.26 21.3 28.74 20.9 29.24 20.44C28.1 19.41 27.09 18.48 26.03 17.53C25.72 17.95 25.45 18.31 25.18 18.66C24.73 19.25 24.17 19.38 23.67 19.02C23.19 18.66 23.15 18.06 23.57 17.48C23.86 17.08 24.15 16.69 24.45 16.27C22.68 14.91 20.94 13.63 18.93 12.78C18.47 12.58 17.96 12.48 17.34 12.29C17.39 12.71 17.36 13.01 17.47 13.24C17.9 14.21 18.28 15.22 18.85 16.11C22.79 22.13 27.8 27.12 33.63 31.3C34.93 32.23 36.29 33.08 37.85 33.51C38.53 33.7 38.65 33.59 38.5 32.92C38.49 32.86 38.47 32.79 38.45 32.73C37.65 30.37 36.16 28.44 34.68 26.46C34.24 26.8 33.85 27.1 33.45 27.4C32.89 27.81 32.31 27.76 31.95 27.28C31.61 26.83 31.72 26.24 32.22 25.83C32.6 25.53 32.98 25.24 33.42 24.9ZM15.68 42.88C12.77 41.21 9.89 39.56 7 37.9C5.64 41.23 4.25 44.63 2.82 48.14C7.21 46.34 11.46 44.6 15.68 42.88Z" fill="black"/>
<path d="M37.9 5.15C37.87 5.24 37.83 5.42 37.75 5.59C37.12 6.87 36.47 8.15 35.83 9.43C35.61 9.86 35.27 10.08 34.78 10.03C34.33 9.98 34.03 9.71 33.95 9.28C33.91 9.05 33.94 8.77 34.04 8.56C34.68 7.24 35.33 5.93 36 4.63C36.25 4.15 36.69 3.97 37.17 4.1C37.6 4.21 37.9 4.62 37.9 5.15Z" fill="black"/>
<path d="M41.98 16.03C41.45 16.04 41.07 15.76 40.94 15.31C40.8 14.85 40.99 14.39 41.47 14.14C42.43 13.64 43.4 13.17 44.36 12.69C44.72 12.51 45.07 12.32 45.43 12.16C45.99 11.91 46.54 12.1 46.79 12.6C47.03 13.09 46.87 13.64 46.34 13.91C45.01 14.6 43.67 15.25 42.33 15.91C42.22 16 42.06 16.01 41.98 16.03Z" fill="black"/>
</g>
</svg>
