<svg width="35" height="35" viewBox="0 0 35 35" fill="none" xmlns="http://www.w3.org/2000/svg">
<path d="M25.5479 32.0391C20.101 32.0391 14.654 32.0391 9.20711 32.0391C9.04667 31.9909 8.88623 31.9348 8.71777 31.9027C7.45832 31.638 6.34327 31.0604 5.65338 29.9694C5.21217 29.2554 4.98755 28.4131 4.66667 27.627C4.66667 26.7205 4.66667 25.814 4.66667 24.8995C4.74689 24.4423 4.84316 23.977 4.91535 23.5197C5.22821 21.4581 5.81381 19.5168 7.28184 17.9525C8.92634 16.1957 11.2206 15.9069 13.2101 17.1904C13.3705 17.2947 13.531 17.407 13.6994 17.5032C15.4081 18.506 17.2371 18.9472 19.1624 18.3215C20.109 18.0167 20.9754 17.4551 21.8899 17.0139C22.4113 16.7652 22.9247 16.3802 23.4622 16.332C24.6975 16.2278 25.8607 16.6048 26.8555 17.3589C28.524 18.6103 29.3022 20.4072 29.6952 22.3646C29.96 23.6641 30.0482 25.0038 30.2167 26.3274C30.2167 26.544 30.2167 26.7606 30.2167 26.9772C30.1766 27.1457 30.1204 27.3061 30.1044 27.4746C29.968 28.9426 29.3904 30.2101 28.131 30.9882C27.3608 31.4695 26.4143 31.6941 25.5479 32.0391Z" fill="white"/>
<path d="M18.1596 1.55556C18.4885 1.63578 18.8255 1.72402 19.1544 1.80424C22.6118 2.68666 24.9302 6.08798 24.5371 9.72193C24.1521 13.2917 21.1438 16.0994 17.5901 16.2197C13.8518 16.3401 10.611 13.8212 10.0013 10.3156C9.33547 6.56929 11.3891 3.07171 14.9188 1.91655C15.3439 1.78017 15.7771 1.67589 16.2103 1.55556C16.8601 1.55556 17.5099 1.55556 18.1596 1.55556Z" fill="white"/>
</svg>
