<svg id="Group_5" data-name="Group 5" xmlns="http://www.w3.org/2000/svg" width="33.701" height="40.638" viewBox="0 0 33.701 40.638">
  <path id="Path_1" data-name="Path 1" d="M38.145,58.774c-5.6,0-5.815,0-7.023-.827l-.032-.022c-2.089-1.413-4.044-4.5-7.211-11.375a58.651,58.651,0,0,0-2.939-5.861l0-.006A4.778,4.778,0,0,1,20,38.263,2.831,2.831,0,0,1,22.819,35.5a2.534,2.534,0,0,1,1.215.305l.017.009a29.578,29.578,0,0,1,2.78,2.642c.965.994,1.792,1.819,2.141,2.154l.042-8.888c0-.765.007-1.469.01-2.118.018-3.825.027-5.745.092-6.776.069-1.1.217-1.5.721-1.954.033-.029.061-.055.089-.082A2.765,2.765,0,0,1,31.881,20a2.905,2.905,0,0,1,1.318.317l.006,0a2.682,2.682,0,0,1,1.3,1.39l.006.013c.179.442.2.725.2,6.624v.777c0,2.486,0,4.082.056,4.791a2.847,2.847,0,0,1,5.173-1.26l0,.005c.425.61.433.837.479,2.315l.028.9a2.971,2.971,0,0,1,1.582-2.26l.014-.007a2.248,2.248,0,0,1,1.1-.25c.1,0,.2,0,.331.011a2.663,2.663,0,0,1,2.346,1.45,3.735,3.735,0,0,1,.313,2.078c0,.429.01.74.03.93a.91.91,0,0,0,.023-.119,2.805,2.805,0,0,1,1-1.824,2.9,2.9,0,0,1,1.836-.657,2.784,2.784,0,0,1,2.116.961,3.027,3.027,0,0,1,.58,1.013c.084.285.135.753.11,6.544L51.794,49.8l-.264.966a9.927,9.927,0,0,1-1.41,3.1,14.154,14.154,0,0,1-4.919,4.34l-1.08.562Z" transform="translate(-19.068 -19.068)" fill="#f5f6fa"/>
  <path id="Path_2" data-name="Path 2" d="M12.813,1.864a1.961,1.961,0,0,1,.893.215,1.77,1.77,0,0,1,.874.928c.116.286.134,1.115.134,6.274,0,6.612-.027,6.354.6,6.612a1.011,1.011,0,0,0,.393.085c.461,0,.828-.371.919-.995a1.915,1.915,0,0,1,3.489-.857c.268.384.268.4.312,1.82l.045,1.428.295.259a.938.938,0,0,0,.627.255.964.964,0,0,0,.748-.389.714.714,0,0,0,.161-.411,2.018,2.018,0,0,1,1.1-1.713,1.338,1.338,0,0,1,.681-.152c.083,0,.176,0,.283.009a1.727,1.727,0,0,1,1.571.955c.187.357.205.509.205,1.642,0,1.347.08,1.642.508,1.838a1.157,1.157,0,0,0,.478.113c.48,0,.841-.376.923-1.023a1.9,1.9,0,0,1,1.91-1.666,1.865,1.865,0,0,1,1.419.648,2.1,2.1,0,0,1,.384.66c.071.241.089,2.106.071,6.274l-.036,5.934-.232.848a8.944,8.944,0,0,1-1.285,2.829A13.237,13.237,0,0,1,25.7,38.319l-.874.455H19.078c-5.592,0-5.539-.008-6.531-.687-1.928-1.3-3.819-4.328-6.889-10.994a58.813,58.813,0,0,0-3-5.97A3.941,3.941,0,0,1,1.864,19.2,1.9,1.9,0,0,1,3.751,17.36a1.618,1.618,0,0,1,.773.193,32.832,32.832,0,0,1,2.57,2.481c1.213,1.25,2.293,2.32,2.391,2.383a.933.933,0,0,0,.466.116.978.978,0,0,0,.632-.214l.25-.214.045-9.451c.054-10.468,0-9.647.634-10.272a1.853,1.853,0,0,1,1.3-.518m0-1.864h0A3.692,3.692,0,0,0,10.2,1.054l-.057.052a2.622,2.622,0,0,0-.774,1.1A5.1,5.1,0,0,0,9.117,3.7c-.066,1.059-.075,2.988-.093,6.831,0,.649-.006,1.353-.01,2.117L8.982,19.3l-.55-.564c-.624-.641-1.234-1.252-1.719-1.721a6.478,6.478,0,0,0-1.271-1.084l-.017-.009-.017-.009A3.5,3.5,0,0,0,3.751,15.5a3.817,3.817,0,0,0-2.574,1.032A3.626,3.626,0,0,0,0,19.2a5.553,5.553,0,0,0,1.077,2.914l0,.006,0,.006A58.077,58.077,0,0,1,3.962,27.87v0A70.925,70.925,0,0,0,7.95,35.591,13.068,13.068,0,0,0,11.5,39.628l.03.02a4.422,4.422,0,0,0,2.4.894c.891.092,2.224.1,5.154.1h6.2l.4-.21.874-.455,0,0,0,0a15.144,15.144,0,0,0,5.261-4.648,10.811,10.811,0,0,0,1.534-3.376l.231-.845.065-.236V30.62l.036-5.934v0c.009-2.172.008-3.646,0-4.638a8.207,8.207,0,0,0-.146-2.173h0A3.9,3.9,0,0,0,32.77,16.5a3.728,3.728,0,0,0-2.813-1.275,3.834,3.834,0,0,0-2.135.651,3.554,3.554,0,0,0-.238-.557v-.006a3.6,3.6,0,0,0-3.121-1.945c-.146-.008-.267-.012-.38-.012a3.183,3.183,0,0,0-1.514.348l-.014.007-.014.007a3.883,3.883,0,0,0-.428.259,3.038,3.038,0,0,0-.467-.921l0-.005,0-.005A3.779,3.779,0,0,0,16.58,11.96c0-.569,0-1.205,0-1.9V9.281c0-2.463,0-4.071-.024-5a5.363,5.363,0,0,0-.247-1.971L16.3,2.292,16.3,2.278A3.614,3.614,0,0,0,14.568.426l-.006,0-.006,0A3.842,3.842,0,0,0,12.813,0" fill="#718093"/>
</svg>
