<svg id="Group_21261" data-name="Group 21261" xmlns="http://www.w3.org/2000/svg" width="23.214" height="23.887" viewBox="0 0 23.214 23.887">
  <g id="Group_21114" data-name="Group 21114">
    <path id="Path_13094" data-name="Path 13094" d="M17.763,13.471H8.17a1,1,0,0,0,0,1.991h9.593a1,1,0,0,0,0-1.991" transform="translate(-1.52 -2.195)" fill="#518ced"/>
    <path id="Path_13095" data-name="Path 13095" d="M17.763,17.438H8.17a1,1,0,0,0,0,1.991h9.593a1,1,0,0,0,0-1.991" transform="translate(-1.52 -2.842)" fill="#518ced"/>
    <path id="Path_13096" data-name="Path 13096" d="M17.763,21.405H8.17a1,1,0,0,0,0,1.991h9.593a1,1,0,0,0,0-1.991" transform="translate(-1.52 -3.488)" fill="#518ced"/>
    <path id="Path_13097" data-name="Path 13097" d="M21.667,2.877H20.5v-.93A1.95,1.95,0,0,0,18.55,0H4.664A1.95,1.95,0,0,0,2.716,1.948v.93H1.546A1.547,1.547,0,0,0,0,4.422v9.795a1.548,1.548,0,0,0,1.546,1.546h1.17V21.94a1.949,1.949,0,0,0,1.948,1.947H18.55A1.949,1.949,0,0,0,20.5,21.94V15.763h1.17a1.548,1.548,0,0,0,1.546-1.546V4.422a1.547,1.547,0,0,0-1.546-1.545M4.413,1.948A.252.252,0,0,1,4.664,1.7H18.55a.251.251,0,0,1,.251.251v.93H4.413ZM18.8,21.94a.25.25,0,0,1-.251.25H4.664a.251.251,0,0,1-.251-.25V9.34a.251.251,0,0,1,.251-.25H18.55a.25.25,0,0,1,.251.25Zm1.62-15.3H18.877a.848.848,0,0,1,0-1.7h1.545a.848.848,0,0,1,0,1.7" fill="#518ced"/>
  </g>
</svg>
