<svg width="34" height="34" viewBox="0 0 34 34" fill="none" xmlns="http://www.w3.org/2000/svg">
<path d="M31 16.5C31 24.5081 24.5081 31 16.5 31C8.49187 31 2 24.5081 2 16.5C2 8.49187 8.49187 2 16.5 2C24.5081 2 31 8.49187 31 16.5Z" fill="#134FA0" stroke="#FCEC40" stroke-width="4"/>
<path d="M17.1364 19.8182V19.2045C17.1364 18.7803 17.2235 18.392 17.3977 18.0398C17.5758 17.6837 17.8333 17.3996 18.1705 17.1875C18.5114 16.9716 18.9242 16.8636 19.4091 16.8636C19.9015 16.8636 20.3144 16.9716 20.6477 17.1875C20.9811 17.3996 21.233 17.6837 21.4034 18.0398C21.5739 18.392 21.6591 18.7803 21.6591 19.2045V19.8182C21.6591 20.2424 21.572 20.6326 21.3977 20.9886C21.2273 21.3409 20.9735 21.625 20.6364 21.8409C20.303 22.053 19.8939 22.1591 19.4091 22.1591C18.9167 22.1591 18.5019 22.053 18.1648 21.8409C17.8277 21.625 17.572 21.3409 17.3977 20.9886C17.2235 20.6326 17.1364 20.2424 17.1364 19.8182ZM18.2955 19.2045V19.8182C18.2955 20.1705 18.3788 20.4867 18.5455 20.767C18.7121 21.0436 19 21.1818 19.4091 21.1818C19.8068 21.1818 20.0871 21.0436 20.25 20.767C20.4167 20.4867 20.5 20.1705 20.5 19.8182V19.2045C20.5 18.8523 20.4205 18.5379 20.2614 18.2614C20.1023 17.9811 19.8182 17.8409 19.4091 17.8409C19.0114 17.8409 18.7254 17.9811 18.5511 18.2614C18.3807 18.5379 18.2955 18.8523 18.2955 19.2045ZM11.3409 13.1591V12.5455C11.3409 12.1212 11.428 11.733 11.6023 11.3807C11.7803 11.0246 12.0379 10.7405 12.375 10.5284C12.7159 10.3125 13.1288 10.2045 13.6136 10.2045C14.1061 10.2045 14.5189 10.3125 14.8523 10.5284C15.1856 10.7405 15.4375 11.0246 15.608 11.3807C15.7784 11.733 15.8636 12.1212 15.8636 12.5455V13.1591C15.8636 13.5833 15.7765 13.9735 15.6023 14.3295C15.4318 14.6818 15.178 14.9659 14.8409 15.1818C14.5076 15.3939 14.0985 15.5 13.6136 15.5C13.1212 15.5 12.7064 15.3939 12.3693 15.1818C12.0322 14.9659 11.7765 14.6818 11.6023 14.3295C11.428 13.9735 11.3409 13.5833 11.3409 13.1591ZM12.5 12.5455V13.1591C12.5 13.5114 12.5833 13.8277 12.75 14.108C12.9167 14.3845 13.2045 14.5227 13.6136 14.5227C14.0114 14.5227 14.2917 14.3845 14.4545 14.108C14.6212 13.8277 14.7045 13.5114 14.7045 13.1591V12.5455C14.7045 12.1932 14.625 11.8788 14.4659 11.6023C14.3068 11.322 14.0227 11.1818 13.6136 11.1818C13.2159 11.1818 12.9299 11.322 12.7557 11.6023C12.5852 11.8788 12.5 12.1932 12.5 12.5455ZM11.7727 22L19.7727 10.3636H21.0682L13.0682 22H11.7727Z" fill="#FCEC40"/>
</svg>
