<svg xmlns="http://www.w3.org/2000/svg" width="42" height="64.001" viewBox="0 0 42 64.001">
  <g id="Group_32" data-name="Group 32" transform="translate(0 0.004)">
    <g id="Group_21400" data-name="Group 21400" transform="translate(0 -0.004)">
      <path id="Path_27" data-name="Path 27" d="M1.04,8.85A1.039,1.039,0,0,1,0,7.81V1.037A1.039,1.039,0,0,1,1.04,0H8.046a1.04,1.04,0,1,1,0,2.08H2.08V7.81A1.039,1.039,0,0,1,1.04,8.85" transform="translate(0 0.003)" fill="#718093"/>
      <path id="Path_28" data-name="Path 28" d="M8.046,414.272H1.04A1.039,1.039,0,0,1,0,413.232v-6.773a1.04,1.04,0,0,1,2.08,0v5.733H8.046a1.04,1.04,0,1,1,0,2.08" transform="translate(0 -382.8)" fill="#718093"/>
      <path id="Path_29" data-name="Path 29" d="M599.509,8.85a1.039,1.039,0,0,1-1.04-1.04V2.077H592.5a1.04,1.04,0,1,1,0-2.08h7.006a1.039,1.039,0,0,1,1.04,1.04V7.81a1.039,1.039,0,0,1-1.04,1.04" transform="translate(-558.549 0.003)" fill="#718093"/>
      <path id="Path_30" data-name="Path 30" d="M599.509,414.272H592.5a1.04,1.04,0,1,1,0-2.08h5.966v-5.733a1.04,1.04,0,0,1,2.08,0v6.773a1.039,1.039,0,0,1-1.04,1.04" transform="translate(-558.549 -382.8)" fill="#718093"/>
      <path id="Path_31" data-name="Path 31" d="M143.065,99.724a1.039,1.039,0,0,1-1.04-1.04V92.049a1.04,1.04,0,0,1,2.08,0v6.635a1.039,1.039,0,0,1-1.04,1.04" transform="translate(-134.083 -85.798)" fill="#718093"/>
      <path id="Path_32" data-name="Path 32" d="M143.065,325.525a1.039,1.039,0,0,1-1.04-1.04V317.85a1.04,1.04,0,0,1,2.08,0v6.635a1.039,1.039,0,0,1-1.04,1.04" transform="translate(-134.083 -299.133)" fill="#718093"/>
      <path id="Path_33" data-name="Path 33" d="M209.8,99.724a1.039,1.039,0,0,1-1.04-1.04V92.049a1.04,1.04,0,1,1,2.08,0v6.635a1.039,1.039,0,0,1-1.04,1.04" transform="translate(-197.088 -85.798)" fill="#718093"/>
      <path id="Path_34" data-name="Path 34" d="M209.8,325.525a1.039,1.039,0,0,1-1.04-1.04V317.85a1.04,1.04,0,1,1,2.08,0v6.635a1.039,1.039,0,0,1-1.04,1.04" transform="translate(-197.088 -299.133)" fill="#718093"/>
      <path id="Path_35" data-name="Path 35" d="M276.557,99.724a1.039,1.039,0,0,1-1.04-1.04V92.049a1.04,1.04,0,0,1,2.08,0v6.635a1.039,1.039,0,0,1-1.04,1.04" transform="translate(-260.109 -85.798)" fill="#718093"/>
      <path id="Path_36" data-name="Path 36" d="M276.557,325.525a1.039,1.039,0,0,1-1.04-1.04V317.85a1.04,1.04,0,0,1,2.08,0v6.635a1.039,1.039,0,0,1-1.04,1.04" transform="translate(-260.109 -299.133)" fill="#718093"/>
      <path id="Path_37" data-name="Path 37" d="M343.294,99.724a1.039,1.039,0,0,1-1.04-1.04V92.049a1.04,1.04,0,0,1,2.08,0v6.635a1.039,1.039,0,0,1-1.04,1.04" transform="translate(-323.114 -85.798)" fill="#718093"/>
      <path id="Path_38" data-name="Path 38" d="M343.294,325.525a1.039,1.039,0,0,1-1.04-1.04V317.85a1.04,1.04,0,0,1,2.08,0v6.635a1.039,1.039,0,0,1-1.04,1.04" transform="translate(-323.114 -299.133)" fill="#718093"/>
      <path id="Path_39" data-name="Path 39" d="M410.049,99.724a1.039,1.039,0,0,1-1.04-1.04V92.049a1.04,1.04,0,1,1,2.08,0v6.635a1.039,1.039,0,0,1-1.04,1.04" transform="translate(-386.136 -85.798)" fill="#718093"/>
      <path id="Path_40" data-name="Path 40" d="M410.049,325.525a1.039,1.039,0,0,1-1.04-1.04V317.85a1.04,1.04,0,0,1,2.08,0v6.635a1.039,1.039,0,0,1-1.04,1.04" transform="translate(-386.136 -299.133)" fill="#718093"/>
      <path id="Path_41" data-name="Path 41" d="M476.8,99.724a1.039,1.039,0,0,1-1.04-1.04V92.049a1.04,1.04,0,1,1,2.08,0v6.635a1.039,1.039,0,0,1-1.04,1.04" transform="translate(-449.158 -85.798)" fill="#718093"/>
      <path id="Path_42" data-name="Path 42" d="M476.8,325.525a1.039,1.039,0,0,1-1.04-1.04V317.85a1.04,1.04,0,0,1,2.08,0v6.635a1.039,1.039,0,0,1-1.04,1.04" transform="translate(-449.158 -299.133)" fill="#718093"/>
      <path id="Path_43" data-name="Path 43" d="M543.541,99.724a1.039,1.039,0,0,1-1.04-1.04V92.049a1.04,1.04,0,1,1,2.08,0v6.635a1.039,1.039,0,0,1-1.04,1.04" transform="translate(-512.163 -85.798)" fill="#718093"/>
      <path id="Path_44" data-name="Path 44" d="M543.541,325.525a1.039,1.039,0,0,1-1.04-1.04V317.85a1.04,1.04,0,1,1,2.08,0v6.635a1.039,1.039,0,0,1-1.04,1.04" transform="translate(-512.163 -299.133)" fill="#718093"/>
      <path id="Path_45" data-name="Path 45" d="M40.983,263.932H1.017a1.04,1.04,0,0,1,0-2.08H40.983a1.04,1.04,0,0,1,0,2.08" transform="translate(0 -247.202)" fill="#ed5555"/>
      <g id="Group_21401" data-name="Group 21401">
        <path id="Path_46" data-name="Path 46" d="M166.9,630.889a4.782,4.782,0,0,1-4.738-4.817v-7.611a5.825,5.825,0,0,0-2.6-4.874l-2.243-1.485a5.737,5.737,0,0,1-2.559-4.8v-2.957a1.009,1.009,0,0,1,1-1.017h22.277a1.009,1.009,0,0,1,1,1.017V607.3a5.735,5.735,0,0,1-2.558,4.8l-2.245,1.485a5.822,5.822,0,0,0-2.6,4.874v7.611a4.782,4.782,0,0,1-4.738,4.817m-10.138-25.525v1.94a3.7,3.7,0,0,0,1.65,3.094l2.242,1.484a7.858,7.858,0,0,1,3.51,6.579v7.611a2.736,2.736,0,1,0,5.472,0v-7.611a7.861,7.861,0,0,1,3.508-6.579l2.245-1.484a3.7,3.7,0,0,0,1.648-3.094v-1.94Z" transform="translate(-145.9 -570.248)" fill="#718093"/>
        <path id="Path_47" data-name="Path 47" d="M319.84,1064.5h-4.929a1.039,1.039,0,0,1-1.04-1.04v-3.36a1.04,1.04,0,0,1,2.08,0v2.32H318.8v-2.32a1.04,1.04,0,0,1,2.08,0v3.36a1.039,1.039,0,0,1-1.04,1.04" transform="translate(-296.375 -1000.504)" fill="#718093"/>
      </g>
      <path id="Path_48" data-name="Path 48" d="M178.04,660.758H155.763a1.041,1.041,0,0,1,0-2.08H178.04a1.041,1.041,0,0,1,0,2.08" transform="translate(-145.901 -621.827)" fill="#718093"/>
    </g>
  </g>
</svg>
