<svg xmlns="http://www.w3.org/2000/svg" width="32.013" height="26" viewBox="0 0 32.013 26">
  <path id="Path_13043" data-name="Path 13043" d="M20.353,53.85H2.941A2.943,2.943,0,0,1,0,50.911V33.9a2.943,2.943,0,0,1,2.941-2.938H24.582A2.943,2.943,0,0,1,27.523,33.9v9.658a.941.941,0,0,1-1.882,0V33.9a1.059,1.059,0,0,0-1.059-1.056H2.941A1.059,1.059,0,0,0,1.882,33.9V50.911a1.059,1.059,0,0,0,1.059,1.056H20.353a.941.941,0,0,1,0,1.882M4.947,47.858H6.226V36.951H4.947Zm10.621-9.374,1.557.6V36.951H15.333V38.43a1.478,1.478,0,0,1,.236.054m4.024,1.561V36.951H18.314v2.6Zm1.344.665,1.638,1.636V36.951H20.782v3.634a1.642,1.642,0,0,1,.155.125M15.748,45.9a1.6,1.6,0,0,1-.357-.542l-.058-.15v2.651h1.793v-.583ZM13.5,40.561a1.6,1.6,0,0,1,.355-1.716,1.672,1.672,0,0,1,.289-.216V36.951H12.865V47.858h1.278V42.193Zm-3.1,7.3h1.279V36.951H10.4Zm-2.982,0H9.208V36.951H7.415Zm21.4,8.826,2.927-2.923a.942.942,0,0,0,0-1.332L20.472,41.178a.932.932,0,0,0-.326-.212L15.329,39.1a.941.941,0,0,0-1.216,1.222L16,45.112a.954.954,0,0,0,.21.32L27.479,56.683a.941.941,0,0,0,1.331,0M16.653,41.629l2.629,1.019L29.74,53.094l-1.6,1.593L17.682,44.239Z" transform="translate(0 -30.959)" fill="#fff"/>
</svg>
