<svg xmlns="http://www.w3.org/2000/svg" width="20" height="19.998" viewBox="0 0 20 19.998">
  <g id="パス_108" data-name="パス 108" transform="translate(0 0)">
    <path id="Path_11657" data-name="Path 11657" d="M384.082,445.388l1.376-2.624-1.751-1.751-2.625,1.374a4.492,4.492,0,0,0-1.375-.5l-1-3h-2.5l-1,2.875a5.21,5.21,0,0,0-1.25.5l-2.625-1.376-1.877,1.876,1.376,2.625a5.2,5.2,0,0,0-.5,1.251l-2.874,1v2.5l2.874,1c.125.5.375.876.5,1.375l-1.376,2.625,1.75,1.75,2.625-1.376a4.484,4.484,0,0,0,1.378.5l1,2.874h2.5l1-2.874c.5-.124.875-.375,1.375-.5l2.625,1.376,1.75-1.75-1.375-2.625a4.471,4.471,0,0,0,.5-1.375l2.876-1v-2.5l-2.877-1A5.253,5.253,0,0,0,384.082,445.388Zm-6.624,7.249a3.682,3.682,0,0,1-3.749-3.614q0-.068,0-.135a3.681,3.681,0,0,1,3.614-3.749q.068,0,.135,0a3.682,3.682,0,0,1,3.749,3.614v.135a3.683,3.683,0,0,1-3.615,3.749C377.547,452.637,377.5,452.637,377.458,452.636Z" transform="translate(-367.459 -438.888)" fill="#496ca0"/>
  </g>
</svg>
