<svg xmlns="http://www.w3.org/2000/svg" width="20.828" height="16" viewBox="0 0 20.828 16">
  <path id="Union_13" data-name="Union 13" d="M15.224,15.863l-4.771-4.587a.489.489,0,0,1,0-.7l.889-.855a.488.488,0,0,1,.675,0l2.252,2.166V.4a.4.4,0,0,1,.4-.4h1.795a.4.4,0,0,1,.4.4V11.881l2.25-2.163a.487.487,0,0,1,.675,0l.89.856a.482.482,0,0,1,.149.35.492.492,0,0,1-.149.354L15.9,15.863a.487.487,0,0,1-.677,0ZM.4,15.568a.4.4,0,0,1-.4-.4v-2.66a.4.4,0,0,1,.4-.4H4.789a.4.4,0,0,1,.4.4v2.66a.4.4,0,0,1-.4.4Zm0-6.055a.4.4,0,0,1-.4-.4V6.454a.4.4,0,0,1,.4-.4H8.248a.4.4,0,0,1,.4.4v2.66a.4.4,0,0,1-.4.4ZM.4,3.46a.4.4,0,0,1-.4-.4V.4A.4.4,0,0,1,.4,0H11.708a.4.4,0,0,1,.4.4V3.06a.4.4,0,0,1-.4.4Z" fill="#518ced"/>
</svg>
