<svg width="46" height="52" viewBox="0 0 46 52" fill="none" xmlns="http://www.w3.org/2000/svg">
<defs>
<clipPath id="clip0_10_27">
<rect width="45.99" height="51.19" fill="white"/>
</clipPath>
</defs>
<g clip-path="url(#clip0_10_27)">
<path d="M45.99 48.99C45.99 49.72 45.99 50.46 45.99 51.19C30.66 51.19 15.33 51.19 0 51.19C0 50.46 0 49.72 0 48.99C0.03 48.9 0.08 48.81 0.09 48.71C0.26 46.97 0.73 45.31 1.5 43.74C3.18 40.34 5.68 37.79 9.29 36.46C10.82 35.9 12.38 35.42 13.92 34.88C14.13 34.81 14.35 34.62 14.45 34.43C14.93 33.54 15.35 32.61 15.83 31.72C15.99 31.42 15.9 31.27 15.72 31.03C15.2 30.36 14.65 29.7 14.26 28.96C13.97 28.41 13.67 28.27 13.08 28.27C11.3 28.27 10.05 27 10.01 25.21C10 24.94 10.04 24.67 10 24.41C9.98 24.26 9.87 24.07 9.75 24C8.55 23.4 8 22.42 8 21.1C8 19.2 8.01 17.3 8 15.4C7.99 12.82 8.48 10.37 9.7 8.08C11.71 4.31 14.77 1.78 18.88 0.6C19.89 0.31 20.95 0.2 22 0C22.67 0 23.33 0 24 0C24.08 0.02 24.16 0.06 24.24 0.07C27.23 0.32 29.91 1.36 32.25 3.22C35.62 5.91 37.6 9.41 37.9 13.71C38.08 16.25 38.01 18.8 37.99 21.35C37.97 23.03 36.69 24.24 35 24.29C34.41 24.31 33.81 24.29 33.17 24.29C32.89 27.01 31.93 29.39 30.01 31.35C30.55 32.44 31.08 33.51 31.63 34.57C31.71 34.72 31.92 34.82 32.1 34.88C33.41 35.33 34.72 35.75 36.03 36.19C40.89 37.83 43.89 41.25 45.39 46.06C45.67 47.02 45.79 48.02 45.99 48.99ZM18.17 26.27C18.63 25.19 19.41 24.46 20.59 24.34C21.53 24.25 22.49 24.24 23.43 24.35C24.97 24.53 26.07 25.9 25.99 27.42C25.91 28.95 24.72 30.17 23.17 30.27C22.64 30.3 22.1 30.26 21.57 30.29C19.99 30.38 18.81 29.8 18.17 28.32C17.51 28.32 16.87 28.32 16.17 28.32C16.92 29.58 17.87 30.56 19.09 31.25C23.74 33.88 29.34 31.43 30.76 26.06C31.27 24.14 31.42 22.13 31.69 20.15C31.83 19.12 31.85 18.07 31.92 17.03C30.83 16.83 29.79 16.68 28.78 16.44C25.79 15.72 23.16 14.31 20.88 12.25C20.74 12.12 20.5 12.03 20.32 12.04C19 12.16 17.73 12.56 16.77 13.47C15.81 14.38 15.01 15.46 14.16 16.47C14.07 16.57 14.08 16.79 14.1 16.95C14.27 18.89 14.42 20.83 14.64 22.77C14.77 23.94 15.01 25.09 15.2 26.26C16.24 26.27 17.2 26.27 18.17 26.27ZM2.08 49.16C8.45 49.16 14.78 49.16 21.24 49.16C18.55 45.22 15.89 41.37 14.41 36.85C12.99 37.32 11.65 37.77 10.31 38.21C5.33 39.85 2.33 44.81 2.08 49.16ZM24.81 49.16C31.24 49.16 37.58 49.16 43.93 49.16C43.91 48.93 43.91 48.73 43.88 48.53C43.86 48.35 43.83 48.17 43.79 47.99C42.93 43.77 40.74 40.52 36.78 38.67C35.24 37.95 33.56 37.52 31.94 36.97C31.84 36.93 31.73 36.92 31.75 36.93C30.69 39.08 29.75 41.21 28.61 43.23C27.47 45.25 26.11 47.15 24.81 49.16ZM14.08 13.08C14.13 13.12 14.19 13.16 14.24 13.19C14.28 13.11 14.29 13.02 14.35 12.96C15.59 11.59 17.12 10.7 18.92 10.25C20.28 9.91 21.41 9.92 22.6 11.04C25.19 13.47 28.42 14.63 31.95 14.95C32.33 11.57 30.42 8.01 26.9 6.58C25.37 5.95 23.78 5.98 22.18 6C19.58 6.03 17.43 7.04 15.79 9.06C14.83 10.23 14.26 11.58 14.08 13.08ZM35.92 13.98C35.5 7.42 29.75 1.7 22.43 2.03C14.97 2.36 10.27 8.59 10.11 13.97C10.73 13.97 11.36 13.97 11.99 13.97C12.01 13.77 12.01 13.61 12.03 13.44C12.5 9.11 14.74 6.13 18.81 4.57C20.7 3.85 22.68 3.87 24.63 4.05C28.82 4.45 31.75 6.65 33.3 10.57C33.72 11.63 33.86 12.81 34.13 13.98C34.65 13.98 35.26 13.98 35.92 13.98ZM26.62 42.78C25.32 41.49 24.09 40.26 22.83 39C21.8 40.09 20.73 41.24 19.64 42.36C19.4 42.61 19.38 42.78 19.57 43.07C20.7 44.76 21.8 46.46 22.92 48.15C22.93 48.17 22.97 48.18 23.02 48.2C24.23 46.38 25.44 44.56 26.62 42.78ZM24.39 37.35C25.53 38.49 26.64 39.6 27.82 40.77C28.49 39.14 29.17 37.49 29.85 35.83C29.88 35.75 29.9 35.62 29.86 35.55C29.44 34.69 29.01 33.84 28.56 32.94C27.11 34.47 25.72 35.95 24.39 37.35ZM21.41 37.59C20 36.18 18.61 34.79 17.22 33.4C16.91 34.02 16.55 34.68 16.25 35.36C16.17 35.55 16.14 35.82 16.21 36C16.84 37.52 17.5 39.02 18.16 40.53C18.2 40.63 18.28 40.71 18.35 40.82C19.41 39.71 20.43 38.62 21.41 37.59ZM10 16.02C10 17.8 9.99 19.53 10.01 21.25C10.02 21.83 10.36 22.22 10.91 22.27C11.43 22.31 11.96 22.28 12.49 22.28C12.32 20.17 12.16 18.1 11.99 16.02C11.34 16.02 10.7 16.02 10 16.02ZM34.01 16.02C33.84 18.11 33.68 20.19 33.51 22.3C33.97 22.3 34.38 22.3 34.79 22.3C35.61 22.29 35.99 21.92 35.99 21.11C36 19.96 35.99 18.82 35.99 17.67C35.99 17.13 35.99 16.58 35.99 16.03C35.3 16.02 34.66 16.02 34.01 16.02ZM21.97 28.29C22.32 28.29 22.67 28.31 23.02 28.29C23.58 28.25 23.97 27.84 23.99 27.33C24.01 26.81 23.6 26.35 23.02 26.32C22.34 26.29 21.65 26.29 20.97 26.32C20.41 26.35 20.02 26.77 20 27.28C19.98 27.8 20.39 28.25 20.97 28.29C21.3 28.31 21.64 28.29 21.97 28.29ZM24.6 34.22C23.35 34.22 22.2 34.22 21.17 34.22C21.7 34.75 22.3 35.35 22.93 35.99C23.44 35.44 23.98 34.87 24.6 34.22ZM12.05 24.31C11.87 25.5 12.11 26.33 13.16 26.25C13.04 25.6 12.93 24.96 12.81 24.31C12.53 24.31 12.3 24.31 12.05 24.31Z" fill="white"/>
<path d="M41.04 45.52C41 46.08 40.78 46.39 40.33 46.53C39.87 46.67 39.51 46.51 39.24 46.14C38.75 45.47 38.29 44.78 37.78 44.13C37.54 43.82 37.2 43.59 36.91 43.31C36.43 42.84 36.38 42.28 36.77 41.85C37.16 41.42 37.72 41.4 38.24 41.83C39.33 42.71 40.2 43.77 40.85 45.01C40.96 45.18 41 45.4 41.04 45.52Z" fill="white"/>
<path d="M33.98 41.59C33.45 41.58 32.99 41.1 33.01 40.58C33.02 40.05 33.5 39.59 34.02 39.61C34.55 39.62 35.01 40.1 34.99 40.62C34.98 41.14 34.5 41.6 33.98 41.59Z" fill="white"/>
</g>
</svg>
