<svg width="34" height="34" viewBox="0 0 34 34" fill="none" xmlns="http://www.w3.org/2000/svg">
<defs>
<linearGradient id="paint0_linear_10_68" x1="36.5695" y1="23.187" x2="5.05077" y2="12.7672" gradientUnits="userSpaceOnUse">
<stop stop-color="#FEBC2C"/>
<stop offset="0.7063" stop-color="#FBAE17"/>
<stop offset="0.9079" stop-color="#FF9002"/>
</linearGradient>
<clipPath id="clip0_10_68">
<rect width="33.16" height="33.16" fill="white"/>
</clipPath>
</defs>
<g clip-path="url(#clip0_10_68)">
<path d="M29.63 11.17C28.85 9.29 29.72 6.27 28.3 4.85C26.89 3.44 23.86 4.3 21.98 3.52C20.17 2.78 18.66 0 16.58 0C14.5 0 12.98 2.78 11.17 3.53C9.29 4.31 6.27 3.44 4.85 4.86C3.44 6.27 4.31 9.3 3.53 11.17C2.78 12.98 0 14.5 0 16.58C0 18.66 2.78 20.18 3.53 21.99C4.31 23.87 3.44 26.89 4.86 28.31C6.27 29.72 9.3 28.86 11.18 29.64C12.99 30.39 14.5 33.17 16.59 33.17C18.67 33.17 20.19 30.39 22 29.64C23.88 28.86 26.9 29.73 28.32 28.31C29.74 26.89 28.87 23.87 29.65 21.99C30.4 20.18 33.18 18.67 33.18 16.58C33.18 14.49 30.38 12.98 29.63 11.17ZM17 21.78L15.56 23.68L7.81 18.24L9.37 16.18L15.01 20.14L23.29 9.48L25.35 11.04L17 21.78Z" fill="url(#paint0_linear_10_68)"/>
</g>
</svg>
