<svg width="34" height="34" viewBox="0 0 34 34" fill="none" xmlns="http://www.w3.org/2000/svg">
<defs>
<linearGradient id="paint0_linear_10_108" x1="37.429" y1="41.8096" x2="1.43626" y2="8.81619" gradientUnits="userSpaceOnUse">
<stop stop-color="#FEBC2C"/>
<stop offset="0.7063" stop-color="#FBAE17"/>
<stop offset="1" stop-color="#FF9002"/>
</linearGradient>
<linearGradient id="paint1_linear_10_108" x1="34.4992" y1="45.0058" x2="-1.49362" y2="12.0125" gradientUnits="userSpaceOnUse">
<stop stop-color="#FEBC2C"/>
<stop offset="0.7063" stop-color="#FBAE17"/>
<stop offset="1" stop-color="#FF9002"/>
</linearGradient>
<linearGradient id="paint2_linear_10_108" x1="39.533" y1="39.5144" x2="3.54022" y2="6.52096" gradientUnits="userSpaceOnUse">
<stop stop-color="#FEBC2C"/>
<stop offset="0.7063" stop-color="#FBAE17"/>
<stop offset="1" stop-color="#FF9002"/>
</linearGradient>
<linearGradient id="paint3_linear_10_108" x1="40.4766" y1="38.485" x2="4.48377" y2="5.49163" gradientUnits="userSpaceOnUse">
<stop stop-color="#FEBC2C"/>
<stop offset="0.7063" stop-color="#FBAE17"/>
<stop offset="1" stop-color="#FF9002"/>
</linearGradient>
<linearGradient id="paint4_linear_10_108" x1="41.3072" y1="37.5788" x2="5.31444" y2="4.58545" gradientUnits="userSpaceOnUse">
<stop stop-color="#FEBC2C"/>
<stop offset="0.7063" stop-color="#FBAE17"/>
<stop offset="1" stop-color="#FF9002"/>
</linearGradient>
<clipPath id="clip0_10_108">
<rect width="33.16" height="33.16" fill="white"/>
</clipPath>
</defs>
<g clip-path="url(#clip0_10_108)">
<path d="M11.67 17.36C11.3 18.26 10.93 19.16 10.56 20.06C10.52 20.15 10.56 20.19 10.63 20.24C11.71 20.96 12.83 21.61 14.02 22.12C14.1 22.16 14.22 22.16 14.31 22.13C15.13 21.8 15.96 21.46 16.78 21.13C17.08 21.01 17.38 20.88 17.71 20.74C15.49 19.94 13.55 18.72 11.71 17.31C11.69 17.33 11.67 17.34 11.67 17.36Z" fill="url(#paint0_linear_10_108)"/>
<path d="M8.79001 24.38C10.3 23.76 11.77 23.16 13.22 22.57C12.22 21.99 11.23 21.43 10.23 20.86C9.77001 22 9.29001 23.17 8.79001 24.38Z" fill="url(#paint1_linear_10_108)"/>
<path d="M13.38 13.16C12.91 14.31 12.44 15.47 11.96 16.62C12.03 16.68 12.09 16.73 12.15 16.77C12.95 17.32 13.73 17.9 14.54 18.42C15.8 19.22 17.13 19.86 18.57 20.28C18.63 20.3 18.7 20.32 18.75 20.3C19.18 20.13 19.6 19.96 20.01 19.79C17.28 18.1 15.08 15.89 13.38 13.16Z" fill="url(#paint2_linear_10_108)"/>
<path d="M29.63 11.17C28.85 9.29 29.72 6.27 28.3 4.85C26.88 3.43 23.86 4.3 21.98 3.52C20.17 2.78 18.66 0 16.58 0C14.5 0 12.98 2.78 11.17 3.53C9.29 4.31 6.27 3.44 4.85 4.86C3.44 6.27 4.31 9.3 3.53 11.17C2.78 12.98 0 14.5 0 16.58C0 18.66 2.78 20.18 3.53 21.99C4.31 23.87 3.44 26.89 4.86 28.31C6.27 29.72 9.3 28.86 11.18 29.64C12.99 30.39 14.5 33.17 16.59 33.17C18.68 33.17 20.19 30.39 22 29.64C23.88 28.86 26.9 29.73 28.32 28.31C29.73 26.9 28.87 23.87 29.65 21.99C30.4 20.18 33.18 18.67 33.18 16.58C33.18 14.49 30.38 12.98 29.63 11.17ZM23.48 11.99C23.67 11.9 23.86 11.97 23.95 12.14C24.03 12.31 23.98 12.5 23.8 12.59C23.34 12.83 22.88 13.05 22.42 13.28C22.38 13.3 22.32 13.31 22.3 13.31C22.12 13.31 21.99 13.22 21.94 13.06C21.89 12.9 21.96 12.74 22.12 12.66C22.45 12.49 22.78 12.33 23.12 12.16C23.23 12.11 23.35 12.04 23.48 11.99ZM19.55 10.74C19.77 10.29 20 9.83 20.23 9.39C20.32 9.22 20.47 9.16 20.63 9.21C20.78 9.25 20.88 9.39 20.88 9.57C20.87 9.6 20.86 9.66 20.83 9.72C20.61 10.16 20.39 10.6 20.17 11.04C20.1 11.19 19.98 11.26 19.81 11.25C19.66 11.23 19.55 11.14 19.52 10.99C19.51 10.91 19.52 10.81 19.55 10.74ZM25.17 15.26C25.04 15.34 24.91 15.33 24.78 15.24C24.5 15.05 24.19 14.91 23.85 14.84C23.22 14.71 22.61 14.79 22.08 15.15C21.47 15.56 20.9 16.03 20.31 16.47C20.52 16.75 20.72 17.02 20.9 17.29C21.25 17.81 21.59 18.33 21.74 18.95C21.78 19.12 21.79 19.3 21.77 19.48C21.75 19.7 21.63 19.85 21.41 19.94C19.32 20.8 17.24 21.66 15.15 22.52C12.86 23.46 10.56 24.39 8.27 25.32C8.26 25.33 8.24 25.34 8.23 25.35C8.18 25.35 8.14 25.35 8.09 25.35C7.8 25.2 7.75 25.07 7.88 24.75C9.64 20.45 11.41 16.15 13.17 11.85C13.35 11.41 13.61 11.28 14.08 11.37C14.61 11.47 15.08 11.73 15.53 12.02C15.91 12.27 16.28 12.53 16.69 12.82C16.7 12.81 16.7 12.77 16.72 12.74C17.1 12.22 17.5 11.72 17.87 11.19C18.47 10.36 18.49 9.26 17.94 8.41C17.74 8.1 17.78 7.95 18.09 7.77C18.14 7.77 18.18 7.77 18.23 7.77C18.34 7.87 18.47 7.96 18.55 8.09C19.22 9.13 19.2 10.53 18.48 11.55C18.1 12.08 17.71 12.59 17.32 13.11C17.29 13.16 17.25 13.2 17.21 13.26C17.59 13.61 17.97 13.95 18.4 14.34C18.43 14.28 18.46 14.21 18.51 14.16C19.58 13.08 20.65 12 21.72 10.92C21.76 10.88 21.8 10.84 21.84 10.8C21.99 10.68 22.18 10.68 22.31 10.81C22.44 10.94 22.45 11.14 22.32 11.29C22.29 11.33 22.25 11.36 22.21 11.4C21.13 12.49 20.05 13.58 18.97 14.67C18.93 14.71 18.89 14.75 18.85 14.8C19.19 15.18 19.53 15.55 19.88 15.93C19.92 15.9 19.96 15.88 20 15.85C20.51 15.46 21.02 15.05 21.55 14.67C22.6 13.91 24.07 13.9 25.13 14.65C25.22 14.71 25.29 14.83 25.32 14.94C25.36 15.07 25.29 15.19 25.17 15.26Z" fill="url(#paint3_linear_10_108)"/>
<path d="M19.35 17.24C19.16 17.38 18.96 17.37 18.83 17.2C18.71 17.05 18.75 16.84 18.92 16.7C19.05 16.6 19.18 16.5 19.33 16.38C19 16.02 18.68 15.66 18.35 15.3C18.2 15.46 18.06 15.6 17.92 15.73C17.86 15.78 17.79 15.84 17.72 15.86C17.57 15.9 17.44 15.85 17.35 15.72C17.26 15.59 17.28 15.42 17.4 15.29C17.55 15.14 17.72 15 17.89 14.84C17.5 14.48 17.15 14.17 16.79 13.84C16.68 13.98 16.59 14.11 16.5 14.23C16.34 14.43 16.15 14.48 15.98 14.35C15.81 14.23 15.8 14.02 15.95 13.82C16.05 13.68 16.15 13.55 16.25 13.4C15.64 12.93 15.04 12.49 14.35 12.2C14.19 12.13 14.02 12.1 13.8 12.03C13.82 12.18 13.81 12.28 13.84 12.36C13.99 12.69 14.12 13.04 14.32 13.35C15.67 15.43 17.4 17.15 19.41 18.59C19.86 18.91 20.33 19.2 20.87 19.35C21.1 19.41 21.14 19.38 21.09 19.15C21.09 19.13 21.08 19.11 21.07 19.08C20.8 18.27 20.28 17.6 19.77 16.92C19.62 17.03 19.49 17.13 19.35 17.24Z" fill="url(#paint4_linear_10_108)"/>
</g>
</svg>
