<svg width="33" height="33" viewBox="0 0 33 33" fill="none" xmlns="http://www.w3.org/2000/svg">
<defs>
<linearGradient id="paint0_linear_10_148" x1="26.1511" y1="25.649" x2="5.47991" y2="8.55065" gradientUnits="userSpaceOnUse">
<stop stop-color="#FEBC2C"/>
<stop offset="0.7063" stop-color="#FBAE17"/>
<stop offset="1" stop-color="#FF9002"/>
</linearGradient>
<linearGradient id="paint1_linear_10_148" x1="26.7638" y1="24.9083" x2="6.09261" y2="7.80993" gradientUnits="userSpaceOnUse">
<stop stop-color="#FEBC2C"/>
<stop offset="0.7063" stop-color="#FBAE17"/>
<stop offset="1" stop-color="#FF9002"/>
</linearGradient>
<clipPath id="clip0_10_148">
<rect width="32.06" height="32.06" fill="white"/>
</clipPath>
</defs>
<g clip-path="url(#clip0_10_148)">
<path d="M19.99 11.75C19.97 11.88 19.96 11.98 19.95 12.08C19.89 12.65 19.67 13.16 19.34 13.63C19.25 13.76 19.11 13.84 18.97 13.78C18.87 13.73 18.75 13.61 18.73 13.5C18.38 11.66 17.51 10.11 16.11 8.86C15.82 8.6 15.51 8.38 15.18 8.12C15.17 8.26 15.16 8.34 15.15 8.42C15.09 9.3 14.91 10.15 14.65 10.99C14.27 12.21 13.69 13.33 12.92 14.36C12.85 14.45 12.7 14.52 12.58 14.52C12.43 14.52 12.33 14.4 12.3 14.24C12.29 14.2 12.29 14.16 12.28 14.12C12.17 13.78 12.05 13.45 11.93 13.11C11.91 13.12 11.89 13.12 11.87 13.13C11.86 13.16 11.85 13.19 11.84 13.22C11.66 14.05 11.38 14.84 10.98 15.58C10.58 16.31 10.29 17.07 10.22 17.9C10.02 20.18 10.86 22 12.72 23.32C13.07 23.57 13.47 23.75 13.88 23.98C13.88 23.9 13.88 23.89 13.88 23.87C13.88 23.85 13.87 23.83 13.86 23.81C13.44 22.73 13.42 21.65 13.87 20.58C14.22 19.75 14.43 18.9 14.45 18C14.45 17.9 14.56 17.76 14.66 17.71C14.79 17.64 14.95 17.68 15.04 17.82C15.19 18.05 15.34 18.27 15.45 18.52C15.58 18.79 15.66 19.09 15.78 19.39C15.81 19.3 15.85 19.22 15.87 19.14C16.17 18.22 16.16 17.31 15.82 16.41C15.75 16.23 15.76 16.07 15.93 15.96C16.09 15.85 16.23 15.9 16.37 16.02C18.51 17.94 19.21 20.95 18.12 23.62C18.1 23.67 18.09 23.72 18.06 23.8C18.15 23.75 18.21 23.73 18.26 23.69C20.61 22.29 21.83 20.22 21.89 17.5C21.93 15.44 21.32 13.57 20.13 11.89C20.08 11.85 20.04 11.81 19.99 11.75Z" fill="url(#paint0_linear_10_148)"/>
<path d="M28.65 10.8C27.9 8.99 28.73 6.06 27.37 4.69C26 3.32 23.08 4.16 21.26 3.41C19.5 2.68 18.04 0 16.03 0C14.02 0 12.55 2.68 10.8 3.41C8.99 4.16 6.06 3.33 4.69 4.69C3.32 6.05 4.16 8.99 3.41 10.8C2.68 12.55 0 14.02 0 16.03C0 18.04 2.68 19.51 3.41 21.26C4.16 23.07 3.33 26 4.69 27.37C6.05 28.74 8.98 27.9 10.8 28.65C12.55 29.38 14.01 32.06 16.03 32.06C18.04 32.06 19.51 29.38 21.26 28.65C23.07 27.9 26 28.73 27.37 27.37C28.74 26 27.9 23.08 28.65 21.26C29.38 19.51 32.06 18.05 32.06 16.03C32.06 14.01 29.37 12.55 28.65 10.8ZM22.54 17.9C22.53 17.94 22.51 17.99 22.5 18.03C22.18 21.22 20.54 23.45 17.6 24.72C17.53 24.75 17.47 24.79 17.41 24.82C17.33 24.82 17.25 24.82 17.17 24.82C16.93 24.64 16.9 24.5 17.04 24.27C18.33 22.22 18.27 19.57 16.87 17.58C16.83 17.52 16.79 17.47 16.72 17.38C16.72 17.48 16.72 17.53 16.72 17.58C16.77 18.71 16.46 19.74 15.79 20.65C15.65 20.85 15.51 20.91 15.35 20.84C15.16 20.75 15.12 20.61 15.14 20.4C15.19 19.99 15.13 19.58 15.01 19.23C14.84 19.74 14.67 20.27 14.47 20.78C14 21.99 14.11 23.13 14.8 24.22C14.97 24.49 14.96 24.62 14.71 24.82C14.61 24.82 14.52 24.82 14.42 24.82C14.36 24.79 14.3 24.76 14.24 24.74C11.87 24 10.33 22.46 9.69 20.05C9.59 19.67 9.56 19.27 9.49 18.87C9.49 18.65 9.49 18.44 9.49 18.22C9.5 18.15 9.52 18.09 9.52 18.02C9.59 17.06 9.88 16.16 10.34 15.32C10.88 14.33 11.2 13.28 11.32 12.16C11.34 12 11.41 11.89 11.56 11.84C11.72 11.79 11.85 11.85 11.95 11.99C12.09 12.19 12.23 12.39 12.35 12.6C12.49 12.85 12.61 13.12 12.75 13.4C12.78 13.36 12.81 13.33 12.83 13.29C13.9 11.57 14.48 9.7 14.5 7.68C14.5 7.49 14.55 7.34 14.71 7.23C14.79 7.23 14.87 7.23 14.95 7.23C15.01 7.27 15.07 7.31 15.14 7.35C17.08 8.51 18.4 10.18 19.09 12.33C19.11 12.38 19.13 12.44 19.16 12.53C19.37 11.88 19.34 11.29 19.08 10.7C19 10.51 19.03 10.35 19.18 10.25C19.34 10.15 19.49 10.18 19.62 10.31C21.07 11.81 21.99 13.58 22.35 15.64C22.43 16.07 22.46 16.51 22.52 16.95C22.54 17.28 22.54 17.59 22.54 17.9Z" fill="url(#paint1_linear_10_148)"/>
</g>
</svg>
