<svg id="Group_24420" data-name="Group 24420" xmlns="http://www.w3.org/2000/svg" width="48" height="48" viewBox="0 0 48 48">
  <rect id="Rectangle_9159" data-name="Rectangle 9159" width="48" height="48" transform="translate(0)" fill="#fff" opacity="0"/>
  <path id="Icon" d="M15.925,26H3.857c-1.449,0-1.823-1.714-1.838-1.787L1.147,4.727H0V3.039H5.029V2.362A2.358,2.358,0,0,1,7.378,0h5.028a2.358,2.358,0,0,1,2.349,2.362v.677h5.027V4.727H18.6l-.824,19.432C17.768,24.177,17.422,26,15.925,26ZM2.827,4.727c.154,3.581.79,18.194.863,18.873a1.147,1.147,0,0,0,.283.711H15.81a1.146,1.146,0,0,0,.283-.711c.083-.76.773-18.693.78-18.873ZM7.546,1.689a.769.769,0,0,0-.836.674v.677h6.366V2.362a.77.77,0,0,0-.837-.674Zm6.343,21.272H12.208l.524-16.882h1.681L13.889,22.96Zm-3.158,0H9.051V6.079h1.681V22.96Zm-3.158,0H5.893L5.37,6.079h1.68L7.573,22.96Z" transform="translate(14.1 11)" fill="#518ced"/>
</svg>
