<svg width="35" height="35" viewBox="0 0 35 35" fill="none" xmlns="http://www.w3.org/2000/svg">
<path d="M23.0222 19.6C23.6444 19.6 24.2667 19.3667 24.7333 18.8222C25.2 18.2778 25.5111 17.7333 25.5111 17.0333C25.5111 16.4111 25.2778 15.7889 24.7333 15.3222C24.1889 14.8556 23.6444 14.5444 23.0222 14.5444C22.4 14.5444 21.7778 14.7778 21.3111 15.3222C20.8444 15.7889 20.5333 16.4111 20.5333 17.0333C20.5333 17.7333 20.7667 18.2778 21.3111 18.8222C21.7778 19.3667 22.4 19.6 23.0222 19.6ZM18.5889 24.4222C17.7333 24.4222 17.0333 24.1889 16.4889 23.6444C15.9444 23.1 15.7111 22.4778 15.7111 21.6222V12.7556C15.7111 11.9 15.9444 11.2 16.4889 10.6556C17.0333 10.1889 17.7333 9.87778 18.5889 9.87778H29.0889C29.9444 9.87778 30.6444 10.1111 31.1889 10.6556C31.7333 11.1222 31.9667 11.8222 31.9667 12.7556V21.6222C31.9667 22.4778 31.7333 23.1778 31.1889 23.7222C30.6444 24.2667 29.9444 24.5 29.0889 24.5H18.5889V24.4222ZM4.66666 31.1111C4.04444 31.1111 3.49999 30.8778 3.03333 30.4111C2.56666 29.9444 2.33333 29.4 2.33333 28.7778V5.44445C2.33333 4.82223 2.56666 4.27778 3.03333 3.81111C3.49999 3.34445 4.04444 3.11111 4.66666 3.11111H28C28.6222 3.11111 29.1667 3.34445 29.6333 3.81111C30.1 4.27778 30.3333 4.82223 30.3333 5.44445V7.54445H18.5889C17.1111 7.54445 15.8667 8.01111 14.8556 9.02223C13.8444 10.0333 13.3778 11.2 13.3778 12.6778V21.5444C13.3778 23.0222 13.8444 24.2667 14.8556 25.2778C15.8667 26.2889 17.1111 26.7556 18.5889 26.7556H30.3333V28.7778C30.3333 29.4 30.1 29.9444 29.6333 30.4111C29.1667 30.8778 28.6222 31.1111 28 31.1111H4.66666Z" fill="white"/>
</svg>
