<svg width="64" height="64" viewBox="0 0 64 64" fill="none" xmlns="http://www.w3.org/2000/svg">
<g clip-path="url(#clip0_1_26)">
<path d="M32 64C49.6731 64 64 49.6731 64 32C64 14.3269 49.6731 0 32 0C14.3269 0 0 14.3269 0 32C0 49.6731 14.3269 64 32 64Z" fill="white"/>
<path d="M32 60C47.464 60 60 47.464 60 32C60 16.536 47.464 4 32 4C16.536 4 4 16.536 4 32C4 47.464 16.536 60 32 60Z" fill="#ED5555"/>
<path d="M45.4458 42.4998H18.5539C18.0047 42.4998 17.516 42.214 17.2467 41.7354C16.9773 41.2568 16.9867 40.6908 17.2717 40.2213L30.7177 18.0751C30.992 17.6233 31.4713 17.3535 31.9999 17.3535C32.5284 17.3535 33.0077 17.6233 33.282 18.0751L46.728 40.2213C47.013 40.6908 47.0224 41.2568 46.753 41.7354C46.4837 42.214 45.995 42.4998 45.4458 42.4998Z" fill="white"/>
<path d="M31.9998 17.8535C31.8306 17.8535 31.4087 17.9004 31.1451 18.3345L17.6991 40.4808C17.4252 40.9319 17.5962 41.337 17.6824 41.4902C17.7686 41.6434 18.0262 41.9998 18.5539 41.9998H45.4458C45.9736 41.9998 46.2311 41.6434 46.3173 41.4902C46.4035 41.337 46.5745 40.9319 46.3006 40.4808L32.8546 18.3345C32.591 17.9004 32.169 17.8535 31.9998 17.8535ZM31.9998 16.8535C32.6599 16.8535 33.32 17.1742 33.7094 17.8156L47.1554 39.9618C47.9646 41.2947 47.0051 42.9998 45.4458 42.9998H18.5539C16.9946 42.9998 16.0351 41.2947 16.8443 39.9618L30.2903 17.8156C30.6797 17.1742 31.3398 16.8535 31.9998 16.8535Z" fill="white"/>
<path d="M31.7399 37.1184C32.0637 37.0731 32.3937 37.1249 32.688 37.2672C32.9823 37.4096 33.2278 37.636 33.3934 37.918C33.5589 38.1999 33.6371 38.5246 33.618 38.851C33.5989 39.1774 33.4834 39.4908 33.2861 39.7515C33.0888 40.0122 32.8185 40.2084 32.5096 40.3155C32.2007 40.4225 31.8669 40.4354 31.5506 40.3527C31.2343 40.2699 30.9497 40.0951 30.7328 39.8505C30.5159 39.6059 30.3764 39.3024 30.3321 38.9785C30.3019 38.7638 30.3144 38.5454 30.3689 38.3356C30.4234 38.1258 30.5188 37.9288 30.6496 37.756C30.7804 37.5832 30.9441 37.4379 31.1312 37.3285C31.3183 37.2191 31.5252 37.1477 31.7399 37.1184Z" fill="#ED5555"/>
<path d="M33.579 33.7886C33.5816 34.2248 33.4109 34.6443 33.1042 34.9547C32.7976 35.2651 32.3802 35.4409 31.944 35.4436C31.5077 35.4462 31.0882 35.2755 30.7778 34.9689C30.4674 34.6622 30.2916 34.2449 30.2889 33.8086L29.4219 26.3775C29.42 26.0534 29.4818 25.7322 29.604 25.432C29.7263 25.1318 29.9064 24.8586 30.1342 24.628C30.362 24.3975 30.6329 24.214 30.9316 24.0882C31.2303 23.9623 31.5508 23.8965 31.8749 23.8946C32.199 23.8926 32.5204 23.9545 32.8205 24.0767C33.1207 24.1989 33.3939 24.3791 33.6245 24.6069C33.8551 24.8346 34.0385 25.1056 34.1644 25.4043C34.2902 25.703 34.356 26.0235 34.358 26.3476L33.579 33.7886Z" fill="#ED5555"/>
</g>
<defs>
<clipPath id="clip0_1_26">
<rect width="64" height="64" fill="white"/>
</clipPath>
</defs>
</svg>
